<svg width="62" height="62" viewBox="0 0 62 62" fill="none" xmlns="http://www.w3.org/2000/svg">
<mask id="path-1-inside-1_4571_1592" fill="white">
<path fill-rule="evenodd" clip-rule="evenodd" d="M29.9949 52.0973C41.0918 52.0973 50.0875 43.1015 50.0875 32.0047C50.0875 20.9079 41.0918 11.9121 29.9949 11.9121C29.9946 11.9121 29.9942 11.9121 29.9938 11.9121C18.8975 11.9127 9.90234 20.9082 9.90234 32.0047C9.90234 43.1015 18.8981 52.0973 29.9949 52.0973ZM29.9938 11.9121C41.0906 11.9121 50.0864 20.9079 50.0864 32.0047H29.9938V11.9121Z"/>
</mask>
<path d="M50.0864 32.0047V36.0047H54.0864V32.0047H50.0864ZM29.9938 32.0047H25.9938V36.0047H29.9938V32.0047ZM46.0875 32.0047C46.0875 40.8924 38.8826 48.0973 29.9949 48.0973V56.0973C43.3009 56.0973 54.0875 45.3107 54.0875 32.0047H46.0875ZM29.9949 15.9121C38.8826 15.9121 46.0875 23.117 46.0875 32.0047H54.0875C54.0875 18.6987 43.3009 7.91211 29.9949 7.91211V15.9121ZM29.994 15.9121C29.9943 15.9121 29.9943 15.9121 29.9949 15.9121V7.91211C29.9949 7.91211 29.9941 7.91211 29.9936 7.91211L29.994 15.9121ZM13.9023 32.0047C13.9023 23.1173 21.1068 15.9126 29.994 15.9121L29.9936 7.91211C16.6882 7.91284 5.90234 18.6992 5.90234 32.0047H13.9023ZM29.9949 48.0973C21.1072 48.0973 13.9023 40.8924 13.9023 32.0047H5.90234C5.90234 45.3107 16.689 56.0973 29.9949 56.0973V48.0973ZM54.0864 32.0047C54.0864 18.6987 43.2998 7.91211 29.9938 7.91211V15.9121C38.8815 15.9121 46.0864 23.117 46.0864 32.0047H54.0864ZM29.9938 36.0047H50.0864V28.0047H29.9938V36.0047ZM25.9938 11.9121V32.0047H33.9938V11.9121H25.9938Z" fill="#10E4F4" mask="url(#path-1-inside-1_4571_1592)"/>
<path d="M34.8672 11.151C43.2616 12.0741 49.9274 18.7399 50.8505 27.1343H34.8672V11.151Z" stroke="#10E4F4" stroke-width="4"/>
</svg>
