<svg width="62" height="62" viewBox="0 0 62 62" fill="none" xmlns="http://www.w3.org/2000/svg">
<path fill-rule="evenodd" clip-rule="evenodd" d="M6.8877 30.1395H6.88672V35.3062C6.88672 38.6352 12.6697 41.334 19.8034 41.334C26.9371 41.334 32.7201 38.6352 32.7201 35.3062V30.2139C32.6341 33.5084 26.8845 36.1668 19.8044 36.1668C12.6711 36.1668 6.88832 33.4683 6.8877 30.1395Z" fill="#10E4F4"/>
<g filter="url(#filter0_d_4571_1598)">
<path d="M31.2201 28.4173C31.2201 29.1529 30.522 30.2846 28.3025 31.3203C26.2049 32.2992 23.2016 32.9451 19.8034 32.9451C16.4052 32.9451 13.4019 32.2992 11.3043 31.3203C9.08482 30.2846 8.38672 29.1529 8.38672 28.4173C8.38672 27.6817 9.08482 26.55 11.3043 25.5143C13.4019 24.5354 16.4052 23.8895 19.8034 23.8895C23.2016 23.8895 26.2049 24.5354 28.3025 25.5143C30.522 26.55 31.2201 27.6817 31.2201 28.4173Z" stroke="#10E4F4" stroke-width="3" shape-rendering="crispEdges"/>
</g>
<g filter="url(#filter1_d_4571_1598)">
<path fill-rule="evenodd" clip-rule="evenodd" d="M30.1376 40.4727H30.1367V45.6393C30.1367 48.9684 35.9197 51.6671 43.0534 51.6671C50.1871 51.6671 55.9701 48.9684 55.9701 45.6393V40.5435C55.889 43.84 50.1374 46.5007 43.0543 46.5007C35.9206 46.5007 30.1376 43.8019 30.1376 40.4729C30.1376 40.4728 30.1376 40.4727 30.1376 40.4727Z" fill="#10E4F4"/>
<path d="M54.4701 38.7504C54.4701 39.486 53.772 40.6177 51.5525 41.6534C49.4549 42.6323 46.4516 43.2782 43.0534 43.2782C39.6552 43.2782 36.6519 42.6323 34.5543 41.6534C32.3348 40.6177 31.6367 39.486 31.6367 38.7504C31.6367 38.0149 32.3348 36.8832 34.5543 35.8474C36.6519 34.8685 39.6552 34.2227 43.0534 34.2227C46.4516 34.2227 49.4549 34.8685 51.5525 35.8474C53.772 36.8832 54.4701 38.0149 54.4701 38.7504Z" stroke="#10E4F4" stroke-width="3"/>
</g>
<path fill-rule="evenodd" clip-rule="evenodd" d="M37.026 24.1123C44.1597 24.1123 49.9427 21.4135 49.9427 18.0845V23.2505V23.2507C49.9425 26.5797 44.1596 29.2783 37.026 29.2783C29.8925 29.2783 24.1096 26.5797 24.1094 23.2507V23.2505V18.0845C24.1094 21.4135 29.8924 24.1123 37.026 24.1123Z" fill="#10E4F4"/>
<path d="M48.4427 16.3618C48.4427 17.0973 47.7446 18.229 45.5252 19.2648C43.4275 20.2437 40.4242 20.8895 37.026 20.8895C33.6278 20.8895 30.6245 20.2437 28.5269 19.2648C26.3075 18.229 25.6094 17.0973 25.6094 16.3618C25.6094 15.6262 26.3075 14.4945 28.5269 13.4588C30.6245 12.4799 33.6278 11.834 37.026 11.834C40.4242 11.834 43.4275 12.4799 45.5252 13.4588C47.7446 14.4945 48.4427 15.6262 48.4427 16.3618Z" stroke="#10E4F4" stroke-width="3"/>
<defs>
<filter id="filter0_d_4571_1598" x="3.88672" y="19.3895" width="31.832" height="18.0555" filterUnits="userSpaceOnUse" color-interpolation-filters="sRGB">
<feFlood flood-opacity="0" result="BackgroundImageFix"/>
<feColorMatrix in="SourceAlpha" type="matrix" values="0 0 0 0 0 0 0 0 0 0 0 0 0 0 0 0 0 0 127 0" result="hardAlpha"/>
<feOffset/>
<feGaussianBlur stdDeviation="1.5"/>
<feComposite in2="hardAlpha" operator="out"/>
<feColorMatrix type="matrix" values="0 0 0 0 0 0 0 0 0 0 0 0 0 0 0 0 0 0 0.25 0"/>
<feBlend mode="normal" in2="BackgroundImageFix" result="effect1_dropShadow_4571_1598"/>
<feBlend mode="normal" in="SourceGraphic" in2="effect1_dropShadow_4571_1598" result="shape"/>
</filter>
<filter id="filter1_d_4571_1598" x="27.1367" y="29.7227" width="31.832" height="24.9445" filterUnits="userSpaceOnUse" color-interpolation-filters="sRGB">
<feFlood flood-opacity="0" result="BackgroundImageFix"/>
<feColorMatrix in="SourceAlpha" type="matrix" values="0 0 0 0 0 0 0 0 0 0 0 0 0 0 0 0 0 0 127 0" result="hardAlpha"/>
<feOffset/>
<feGaussianBlur stdDeviation="1.5"/>
<feComposite in2="hardAlpha" operator="out"/>
<feColorMatrix type="matrix" values="0 0 0 0 0 0 0 0 0 0 0 0 0 0 0 0 0 0 0.25 0"/>
<feBlend mode="normal" in2="BackgroundImageFix" result="effect1_dropShadow_4571_1598"/>
<feBlend mode="normal" in="SourceGraphic" in2="effect1_dropShadow_4571_1598" result="shape"/>
</filter>
</defs>
</svg>
