<svg width="160" height="96" viewBox="0 0 160 96" fill="none" xmlns="http://www.w3.org/2000/svg">
<path d="M53.5156 14.2521C53.5156 7.78264 58.7602 2.53809 65.2297 2.53809H94.7672C101.237 2.53809 106.481 7.78264 106.481 14.2521V43.7941C106.481 50.2635 101.237 55.5081 94.7672 55.5081H65.2297C58.7602 55.5081 53.5156 50.2635 53.5156 43.7941V14.2521Z" fill="white"/>
<g filter="url(#filter0_d_4544_1854)">
<path d="M94.7786 27.4965C94.6464 29.1069 94.3634 30.701 93.9334 32.2578C92.4662 38.7121 86.6889 43.53 79.7855 43.53C71.7729 43.53 65.2773 37.0396 65.2773 29.0333C65.2773 21.027 71.7729 14.5366 79.7855 14.5366C84.9845 14.5366 89.5448 17.2692 92.1064 21.3753L96.7762 22.6939L93.2445 23.6106C93.2446 23.6108 93.2447 23.6111 93.2448 23.6114L87.9911 25.018C86.5044 21.9902 83.3885 19.9058 79.7855 19.9058C74.7405 19.9058 70.6507 23.9923 70.6507 29.0333C70.6507 34.0743 74.7405 38.1608 79.7855 38.1608C83.6809 38.1608 87.0069 35.7244 88.3203 32.2934L80.3206 30.7305L94.8288 26.8857L94.7786 27.4965Z" fill="#1F2231"/>
</g>
<g opacity="0.6">
<path d="M143.222 75.7329C143.422 75.7329 143.63 75.7828 143.846 75.8825C144.062 75.9823 144.228 76.1236 144.345 76.3064L150.678 85.9565L149.606 85.9066L156.064 76.3064C156.33 75.9241 156.671 75.7329 157.087 75.7329C157.419 75.7329 157.71 75.8576 157.959 76.1069C158.225 76.3397 158.358 76.6389 158.358 77.0046V91.941C158.358 92.3068 158.242 92.6143 158.009 92.8637C157.776 93.0964 157.469 93.2128 157.087 93.2128C156.688 93.2128 156.363 93.0964 156.114 92.8637C155.881 92.6143 155.765 92.3068 155.765 91.941V79.2987L156.563 79.4733L151.077 87.8267C150.961 87.9763 150.811 88.1093 150.628 88.2256C150.445 88.3254 150.254 88.3669 150.055 88.3503C149.872 88.3669 149.681 88.3254 149.481 88.2256C149.298 88.1093 149.149 87.9763 149.032 87.8267L143.746 79.5979L144.345 78.6005V91.941C144.345 92.3068 144.228 92.6143 143.995 92.8637C143.779 93.0964 143.488 93.2128 143.123 93.2128C142.774 93.2128 142.483 93.0964 142.25 92.8637C142.034 92.6143 141.926 92.3068 141.926 91.941V77.0046C141.926 76.6555 142.05 76.3563 142.3 76.1069C142.566 75.8576 142.873 75.7329 143.222 75.7329Z" fill="#1F2231"/>
<path d="M143.222 75.7329C143.422 75.7329 143.63 75.7828 143.846 75.8825C144.062 75.9823 144.228 76.1236 144.345 76.3064L150.678 85.9565L149.606 85.9066L156.064 76.3064C156.33 75.9241 156.671 75.7329 157.087 75.7329C157.419 75.7329 157.71 75.8576 157.959 76.1069C158.225 76.3397 158.358 76.6389 158.358 77.0046V91.941C158.358 92.3068 158.242 92.6143 158.009 92.8637C157.776 93.0964 157.469 93.2128 157.087 93.2128C156.688 93.2128 156.363 93.0964 156.114 92.8637C155.881 92.6143 155.765 92.3068 155.765 91.941V79.2987L156.563 79.4733L151.077 87.8267C150.961 87.9763 150.811 88.1093 150.628 88.2256C150.445 88.3254 150.254 88.3669 150.055 88.3503C149.872 88.3669 149.681 88.3254 149.481 88.2256C149.298 88.1093 149.149 87.9763 149.032 87.8267L143.746 79.5979L144.345 78.6005V91.941C144.345 92.3068 144.228 92.6143 143.995 92.8637C143.779 93.0964 143.488 93.2128 143.123 93.2128C142.774 93.2128 142.483 93.0964 142.25 92.8637C142.034 92.6143 141.926 92.3068 141.926 91.941V77.0046C141.926 76.6555 142.05 76.3563 142.3 76.1069C142.566 75.8576 142.873 75.7329 143.222 75.7329Z" fill="#F3F3F3"/>
</g>
<g opacity="0.6">
<path d="M138.864 84.4851C138.864 85.7485 138.656 86.9288 138.241 88.026C137.825 89.1065 137.235 90.0541 136.47 90.8686C135.722 91.6832 134.833 92.3232 133.802 92.7887C132.772 93.2375 131.641 93.4619 130.411 93.4619C129.198 93.4619 128.075 93.2375 127.045 92.7887C126.014 92.3232 125.116 91.6832 124.352 90.8686C123.604 90.0541 123.022 89.1065 122.606 88.026C122.207 86.9288 122.008 85.7485 122.008 84.4851C122.008 83.2217 122.207 82.0497 122.606 80.9692C123.022 79.872 123.604 78.9162 124.352 78.1016C125.116 77.287 126.014 76.6553 127.045 76.2065C128.075 75.741 129.198 75.5083 130.411 75.5083C131.641 75.5083 132.772 75.741 133.802 76.2065C134.833 76.6553 135.722 77.287 136.47 78.1016C137.235 78.9162 137.825 79.872 138.241 80.9692C138.656 82.0497 138.864 83.2217 138.864 84.4851ZM136.171 84.4851C136.171 83.255 135.922 82.1495 135.423 81.1687C134.941 80.1879 134.268 79.4149 133.403 78.8497C132.539 78.2845 131.542 78.0019 130.411 78.0019C129.297 78.0019 128.308 78.2845 127.444 78.8497C126.579 79.4149 125.906 80.1879 125.424 81.1687C124.942 82.1329 124.701 83.2383 124.701 84.4851C124.701 85.7153 124.942 86.8207 125.424 87.8015C125.906 88.7823 126.579 89.5554 127.444 90.1206C128.308 90.6858 129.297 90.9684 130.411 90.9684C131.542 90.9684 132.539 90.6858 133.403 90.1206C134.268 89.5554 134.941 88.7823 135.423 87.8015C135.922 86.8207 136.171 85.7153 136.171 84.4851Z" fill="#1F2231"/>
<path d="M138.864 84.4851C138.864 85.7485 138.656 86.9288 138.241 88.026C137.825 89.1065 137.235 90.0541 136.47 90.8686C135.722 91.6832 134.833 92.3232 133.802 92.7887C132.772 93.2375 131.641 93.4619 130.411 93.4619C129.198 93.4619 128.075 93.2375 127.045 92.7887C126.014 92.3232 125.116 91.6832 124.352 90.8686C123.604 90.0541 123.022 89.1065 122.606 88.026C122.207 86.9288 122.008 85.7485 122.008 84.4851C122.008 83.2217 122.207 82.0497 122.606 80.9692C123.022 79.872 123.604 78.9162 124.352 78.1016C125.116 77.287 126.014 76.6553 127.045 76.2065C128.075 75.741 129.198 75.5083 130.411 75.5083C131.641 75.5083 132.772 75.741 133.802 76.2065C134.833 76.6553 135.722 77.287 136.47 78.1016C137.235 78.9162 137.825 79.872 138.241 80.9692C138.656 82.0497 138.864 83.2217 138.864 84.4851ZM136.171 84.4851C136.171 83.255 135.922 82.1495 135.423 81.1687C134.941 80.1879 134.268 79.4149 133.403 78.8497C132.539 78.2845 131.542 78.0019 130.411 78.0019C129.297 78.0019 128.308 78.2845 127.444 78.8497C126.579 79.4149 125.906 80.1879 125.424 81.1687C124.942 82.1329 124.701 83.2383 124.701 84.4851C124.701 85.7153 124.942 86.8207 125.424 87.8015C125.906 88.7823 126.579 89.5554 127.444 90.1206C128.308 90.6858 129.297 90.9684 130.411 90.9684C131.542 90.9684 132.539 90.6858 133.403 90.1206C134.268 89.5554 134.941 88.7823 135.423 87.8015C135.922 86.8207 136.171 85.7153 136.171 84.4851Z" fill="#F3F3F3"/>
</g>
<g opacity="0.6">
<path d="M119.896 84.4851C119.896 85.7485 119.688 86.9288 119.272 88.026C118.857 89.1065 118.266 90.0541 117.502 90.8686C116.754 91.6832 115.864 92.3232 114.834 92.7887C113.803 93.2375 112.673 93.4619 111.442 93.4619C110.229 93.4619 109.107 93.2375 108.076 92.7887C107.045 92.3232 106.148 91.6832 105.383 90.8686C104.635 90.0541 104.053 89.1065 103.638 88.026C103.239 86.9288 103.039 85.7485 103.039 84.4851C103.039 83.2217 103.239 82.0497 103.638 80.9692C104.053 79.872 104.635 78.9162 105.383 78.1016C106.148 77.287 107.045 76.6553 108.076 76.2065C109.107 75.741 110.229 75.5083 111.442 75.5083C112.673 75.5083 113.803 75.741 114.834 76.2065C115.864 76.6553 116.754 77.287 117.502 78.1016C118.266 78.9162 118.857 79.872 119.272 80.9692C119.688 82.0497 119.896 83.2217 119.896 84.4851ZM117.202 84.4851C117.202 83.255 116.953 82.1495 116.454 81.1687C115.972 80.1879 115.299 79.4149 114.435 78.8497C113.57 78.2845 112.573 78.0019 111.442 78.0019C110.329 78.0019 109.339 78.2845 108.475 78.8497C107.611 79.4149 106.937 80.1879 106.455 81.1687C105.973 82.1329 105.732 83.2383 105.732 84.4851C105.732 85.7153 105.973 86.8207 106.455 87.8015C106.937 88.7823 107.611 89.5554 108.475 90.1206C109.339 90.6858 110.329 90.9684 111.442 90.9684C112.573 90.9684 113.57 90.6858 114.435 90.1206C115.299 89.5554 115.972 88.7823 116.454 87.8015C116.953 86.8207 117.202 85.7153 117.202 84.4851Z" fill="#1F2231"/>
<path d="M119.896 84.4851C119.896 85.7485 119.688 86.9288 119.272 88.026C118.857 89.1065 118.266 90.0541 117.502 90.8686C116.754 91.6832 115.864 92.3232 114.834 92.7887C113.803 93.2375 112.673 93.4619 111.442 93.4619C110.229 93.4619 109.107 93.2375 108.076 92.7887C107.045 92.3232 106.148 91.6832 105.383 90.8686C104.635 90.0541 104.053 89.1065 103.638 88.026C103.239 86.9288 103.039 85.7485 103.039 84.4851C103.039 83.2217 103.239 82.0497 103.638 80.9692C104.053 79.872 104.635 78.9162 105.383 78.1016C106.148 77.287 107.045 76.6553 108.076 76.2065C109.107 75.741 110.229 75.5083 111.442 75.5083C112.673 75.5083 113.803 75.741 114.834 76.2065C115.864 76.6553 116.754 77.287 117.502 78.1016C118.266 78.9162 118.857 79.872 119.272 80.9692C119.688 82.0497 119.896 83.2217 119.896 84.4851ZM117.202 84.4851C117.202 83.255 116.953 82.1495 116.454 81.1687C115.972 80.1879 115.299 79.4149 114.435 78.8497C113.57 78.2845 112.573 78.0019 111.442 78.0019C110.329 78.0019 109.339 78.2845 108.475 78.8497C107.611 79.4149 106.937 80.1879 106.455 81.1687C105.973 82.1329 105.732 83.2383 105.732 84.4851C105.732 85.7153 105.973 86.8207 106.455 87.8015C106.937 88.7823 107.611 89.5554 108.475 90.1206C109.339 90.6858 110.329 90.9684 111.442 90.9684C112.573 90.9684 113.57 90.6858 114.435 90.1206C115.299 89.5554 115.972 88.7823 116.454 87.8015C116.953 86.8207 117.202 85.7153 117.202 84.4851Z" fill="#F3F3F3"/>
</g>
<g opacity="0.6">
<path d="M95.3271 75.7578C96.8565 75.7578 98.0118 76.1318 98.7932 76.8799C99.5911 77.628 99.9901 78.7168 99.9901 80.1465C99.9901 80.8945 99.8072 81.5761 99.4415 82.1912C99.0924 82.7897 98.5687 83.2634 97.8705 83.6125C97.189 83.9616 96.3328 84.1445 95.3022 84.1611L95.352 83.2385C95.9006 83.2385 96.4908 83.3133 97.1225 83.4629C97.7708 83.6125 98.3776 83.8702 98.9428 84.2359C99.508 84.6016 99.9734 85.1003 100.339 85.7321C100.705 86.3471 100.888 87.1201 100.888 88.0511C100.888 89.0651 100.722 89.9129 100.389 90.5945C100.057 91.2594 99.616 91.7831 99.0674 92.1654C98.5189 92.5478 97.9121 92.8221 97.2471 92.9883C96.5988 93.1379 95.9588 93.2127 95.3271 93.2127H88.9436C88.5945 93.2127 88.2953 93.0964 88.0459 92.8636C87.7966 92.6143 87.6719 92.3067 87.6719 91.941V77.0295C87.6719 76.6638 87.7966 76.3646 88.0459 76.1318C88.2953 75.8825 88.5945 75.7578 88.9436 75.7578H95.3271ZM94.978 78.2015H90.0657L90.3649 77.8025V83.1637L90.0906 82.8894H95.0279C95.6263 82.8728 96.15 82.6733 96.5988 82.2909C97.0643 81.892 97.297 81.3101 97.297 80.5454C97.297 79.7641 97.0892 79.1823 96.6736 78.8C96.258 78.401 95.6928 78.2015 94.978 78.2015ZM95.1526 85.3331H90.1904L90.3649 85.1585V91.0433L90.1654 90.8189H95.3022C96.1666 90.8189 96.8648 90.5945 97.3968 90.1457C97.9287 89.6802 98.1947 88.982 98.1947 88.0511C98.1947 87.2697 98.0368 86.6879 97.7209 86.3056C97.4051 85.9232 97.0144 85.6656 96.549 85.5326C96.0835 85.3996 95.618 85.3331 95.1526 85.3331Z" fill="#1F2231"/>
<path d="M95.3271 75.7578C96.8565 75.7578 98.0118 76.1318 98.7932 76.8799C99.5911 77.628 99.9901 78.7168 99.9901 80.1465C99.9901 80.8945 99.8072 81.5761 99.4415 82.1912C99.0924 82.7897 98.5687 83.2634 97.8705 83.6125C97.189 83.9616 96.3328 84.1445 95.3022 84.1611L95.352 83.2385C95.9006 83.2385 96.4908 83.3133 97.1225 83.4629C97.7708 83.6125 98.3776 83.8702 98.9428 84.2359C99.508 84.6016 99.9734 85.1003 100.339 85.7321C100.705 86.3471 100.888 87.1201 100.888 88.0511C100.888 89.0651 100.722 89.9129 100.389 90.5945C100.057 91.2594 99.616 91.7831 99.0674 92.1654C98.5189 92.5478 97.9121 92.8221 97.2471 92.9883C96.5988 93.1379 95.9588 93.2127 95.3271 93.2127H88.9436C88.5945 93.2127 88.2953 93.0964 88.0459 92.8636C87.7966 92.6143 87.6719 92.3067 87.6719 91.941V77.0295C87.6719 76.6638 87.7966 76.3646 88.0459 76.1318C88.2953 75.8825 88.5945 75.7578 88.9436 75.7578H95.3271ZM94.978 78.2015H90.0657L90.3649 77.8025V83.1637L90.0906 82.8894H95.0279C95.6263 82.8728 96.15 82.6733 96.5988 82.2909C97.0643 81.892 97.297 81.3101 97.297 80.5454C97.297 79.7641 97.0892 79.1823 96.6736 78.8C96.258 78.401 95.6928 78.2015 94.978 78.2015ZM95.1526 85.3331H90.1904L90.3649 85.1585V91.0433L90.1654 90.8189H95.3022C96.1666 90.8189 96.8648 90.5945 97.3968 90.1457C97.9287 89.6802 98.1947 88.982 98.1947 88.0511C98.1947 87.2697 98.0368 86.6879 97.7209 86.3056C97.4051 85.9232 97.0144 85.6656 96.549 85.5326C96.0835 85.3996 95.618 85.3331 95.1526 85.3331Z" fill="#F3F3F3"/>
</g>
<g opacity="0.6">
<path d="M72.1954 93.2127C71.7964 93.2127 71.4473 93.0964 71.1481 92.8636C70.8488 92.6143 70.6992 92.3067 70.6992 91.941V77.0295C70.6992 76.6638 70.8239 76.3646 71.0732 76.1318C71.3226 75.8825 71.6218 75.7578 71.9709 75.7578H79.0028C79.9005 75.7578 80.7233 75.9822 81.4714 76.4311C82.2195 76.8633 82.8179 77.4701 83.2668 78.2514C83.7322 79.0161 83.965 79.8971 83.965 80.8945C83.965 81.5595 83.832 82.1995 83.566 82.8146C83.3 83.413 82.9426 83.945 82.4938 84.4105C82.0449 84.8759 81.5379 85.225 80.9727 85.4578L80.6984 84.984C81.2137 85.1668 81.6626 85.4328 82.0449 85.7819C82.4273 86.1144 82.7265 86.5134 82.9426 86.9788C83.1753 87.4277 83.3 87.943 83.3166 88.5248C83.3665 89.0402 83.4081 89.4724 83.4413 89.8215C83.4912 90.154 83.5577 90.4283 83.6408 90.6444C83.7239 90.8605 83.8735 91.0267 84.0896 91.1431C84.3889 91.3093 84.5717 91.5587 84.6382 91.8911C84.7213 92.2236 84.6548 92.5228 84.4387 92.7888C84.2891 92.9883 84.0979 93.1213 83.8652 93.1878C83.6491 93.2377 83.4247 93.246 83.192 93.2127C82.9592 93.1629 82.7597 93.0964 82.5935 93.0132C82.3275 92.847 82.0532 92.6143 81.7706 92.315C81.5046 91.9992 81.2885 91.567 81.1223 91.0184C80.9561 90.4698 80.8729 89.7467 80.8729 88.849C80.8729 88.4334 80.8064 88.076 80.6735 87.7768C80.5405 87.4775 80.3576 87.2365 80.1249 87.0536C79.8921 86.8542 79.6179 86.7129 79.302 86.6297C78.9862 86.53 78.6371 86.4801 78.2547 86.4801H72.9684L73.3175 85.9814V91.941C73.3175 92.3067 73.2177 92.6143 73.0182 92.8636C72.8187 93.0964 72.5445 93.2127 72.1954 93.2127ZM72.9933 84.3107H78.9529C79.3352 84.2941 79.701 84.1445 80.0501 83.8619C80.4158 83.5627 80.7067 83.1637 80.9228 82.665C81.1555 82.1663 81.2719 81.6011 81.2719 80.9694C81.2719 80.1714 81.0309 79.5065 80.5488 78.9745C80.0833 78.4259 79.5264 78.1516 78.8781 78.1516H73.0432L73.3175 77.5033V84.8344L72.9933 84.3107Z" fill="#1F2231"/>
<path d="M72.1954 93.2127C71.7964 93.2127 71.4473 93.0964 71.1481 92.8636C70.8488 92.6143 70.6992 92.3067 70.6992 91.941V77.0295C70.6992 76.6638 70.8239 76.3646 71.0732 76.1318C71.3226 75.8825 71.6218 75.7578 71.9709 75.7578H79.0028C79.9005 75.7578 80.7233 75.9822 81.4714 76.4311C82.2195 76.8633 82.8179 77.4701 83.2668 78.2514C83.7322 79.0161 83.965 79.8971 83.965 80.8945C83.965 81.5595 83.832 82.1995 83.566 82.8146C83.3 83.413 82.9426 83.945 82.4938 84.4105C82.0449 84.8759 81.5379 85.225 80.9727 85.4578L80.6984 84.984C81.2137 85.1668 81.6626 85.4328 82.0449 85.7819C82.4273 86.1144 82.7265 86.5134 82.9426 86.9788C83.1753 87.4277 83.3 87.943 83.3166 88.5248C83.3665 89.0402 83.4081 89.4724 83.4413 89.8215C83.4912 90.154 83.5577 90.4283 83.6408 90.6444C83.7239 90.8605 83.8735 91.0267 84.0896 91.1431C84.3889 91.3093 84.5717 91.5587 84.6382 91.8911C84.7213 92.2236 84.6548 92.5228 84.4387 92.7888C84.2891 92.9883 84.0979 93.1213 83.8652 93.1878C83.6491 93.2377 83.4247 93.246 83.192 93.2127C82.9592 93.1629 82.7597 93.0964 82.5935 93.0132C82.3275 92.847 82.0532 92.6143 81.7706 92.315C81.5046 91.9992 81.2885 91.567 81.1223 91.0184C80.9561 90.4698 80.8729 89.7467 80.8729 88.849C80.8729 88.4334 80.8064 88.076 80.6735 87.7768C80.5405 87.4775 80.3576 87.2365 80.1249 87.0536C79.8921 86.8542 79.6179 86.7129 79.302 86.6297C78.9862 86.53 78.6371 86.4801 78.2547 86.4801H72.9684L73.3175 85.9814V91.941C73.3175 92.3067 73.2177 92.6143 73.0182 92.8636C72.8187 93.0964 72.5445 93.2127 72.1954 93.2127ZM72.9933 84.3107H78.9529C79.3352 84.2941 79.701 84.1445 80.0501 83.8619C80.4158 83.5627 80.7067 83.1637 80.9228 82.665C81.1555 82.1663 81.2719 81.6011 81.2719 80.9694C81.2719 80.1714 81.0309 79.5065 80.5488 78.9745C80.0833 78.4259 79.5264 78.1516 78.8781 78.1516H73.0432L73.3175 77.5033V84.8344L72.9933 84.3107Z" fill="#F3F3F3"/>
</g>
<g opacity="0.6">
<path d="M57.7248 75.7578H66.3526C66.7017 75.7578 66.9926 75.8742 67.2253 76.1069C67.4747 76.3396 67.5993 76.6306 67.5993 76.9797C67.5993 77.3288 67.4747 77.6114 67.2253 77.8275C66.9926 78.0436 66.7017 78.1516 66.3526 78.1516H58.822L59.0714 77.7277V83.3133L58.8469 83.0639H65.2305C65.5796 83.0639 65.8705 83.1803 66.1032 83.413C66.3526 83.6458 66.4772 83.945 66.4772 84.3107C66.4772 84.6598 66.3526 84.9424 66.1032 85.1585C65.8705 85.3746 65.5796 85.4827 65.2305 85.4827H58.8968L59.0714 85.2583V91.0184L58.8968 90.8189H66.3526C66.7017 90.8189 66.9926 90.9436 67.2253 91.1929C67.4747 91.4257 67.5993 91.7 67.5993 92.0158C67.5993 92.3649 67.4747 92.6558 67.2253 92.8886C66.9926 93.1047 66.7017 93.2127 66.3526 93.2127H57.7248C57.3757 93.2127 57.0765 93.0964 56.8272 92.8636C56.5778 92.6143 56.4531 92.3067 56.4531 91.941V77.0295C56.4531 76.6638 56.5778 76.3646 56.8272 76.1318C57.0765 75.8825 57.3757 75.7578 57.7248 75.7578Z" fill="#1F2231"/>
<path d="M57.7248 75.7578H66.3526C66.7017 75.7578 66.9926 75.8742 67.2253 76.1069C67.4747 76.3396 67.5993 76.6306 67.5993 76.9797C67.5993 77.3288 67.4747 77.6114 67.2253 77.8275C66.9926 78.0436 66.7017 78.1516 66.3526 78.1516H58.822L59.0714 77.7277V83.3133L58.8469 83.0639H65.2305C65.5796 83.0639 65.8705 83.1803 66.1032 83.413C66.3526 83.6458 66.4772 83.945 66.4772 84.3107C66.4772 84.6598 66.3526 84.9424 66.1032 85.1585C65.8705 85.3746 65.5796 85.4827 65.2305 85.4827H58.8968L59.0714 85.2583V91.0184L58.8968 90.8189H66.3526C66.7017 90.8189 66.9926 90.9436 67.2253 91.1929C67.4747 91.4257 67.5993 91.7 67.5993 92.0158C67.5993 92.3649 67.4747 92.6558 67.2253 92.8886C66.9926 93.1047 66.7017 93.2127 66.3526 93.2127H57.7248C57.3757 93.2127 57.0765 93.0964 56.8272 92.8636C56.5778 92.6143 56.4531 92.3067 56.4531 91.941V77.0295C56.4531 76.6638 56.5778 76.3646 56.8272 76.1318C57.0765 75.8825 57.3757 75.7578 57.7248 75.7578Z" fill="#F3F3F3"/>
</g>
<g opacity="0.6">
<path d="M37.2459 75.7329C37.4454 75.7329 37.6532 75.7828 37.8693 75.8825C38.0854 75.9823 38.2516 76.1236 38.368 76.3064L44.7016 85.9565L43.6294 85.9066L50.0877 76.3064C50.3537 75.9241 50.6945 75.7329 51.1101 75.7329C51.4425 75.7329 51.7335 75.8576 51.9828 76.1069C52.2488 76.3397 52.3818 76.6389 52.3818 77.0046V91.941C52.3818 92.3068 52.2654 92.6143 52.0327 92.8637C51.7999 93.0964 51.4924 93.2128 51.1101 93.2128C50.7111 93.2128 50.3869 93.0964 50.1376 92.8637C49.9048 92.6143 49.7885 92.3068 49.7885 91.941V79.2987L50.5864 79.4733L45.1006 87.8267C44.9842 87.9763 44.8346 88.1093 44.6517 88.2256C44.4689 88.3254 44.2777 88.3669 44.0782 88.3503C43.8954 88.3669 43.7042 88.3254 43.5047 88.2256C43.3218 88.1093 43.1722 87.9763 43.0559 87.8267L37.7695 79.5979L38.368 78.6005V91.941C38.368 92.3068 38.2516 92.6143 38.0189 92.8637C37.8028 93.0964 37.5118 93.2128 37.1461 93.2128C36.797 93.2128 36.5061 93.0964 36.2734 92.8637C36.0573 92.6143 35.9492 92.3068 35.9492 91.941V77.0046C35.9492 76.6555 36.0739 76.3563 36.3233 76.1069C36.5892 75.8576 36.8968 75.7329 37.2459 75.7329Z" fill="#1F2231"/>
<path d="M37.2459 75.7329C37.4454 75.7329 37.6532 75.7828 37.8693 75.8825C38.0854 75.9823 38.2516 76.1236 38.368 76.3064L44.7016 85.9565L43.6294 85.9066L50.0877 76.3064C50.3537 75.9241 50.6945 75.7329 51.1101 75.7329C51.4425 75.7329 51.7335 75.8576 51.9828 76.1069C52.2488 76.3397 52.3818 76.6389 52.3818 77.0046V91.941C52.3818 92.3068 52.2654 92.6143 52.0327 92.8637C51.7999 93.0964 51.4924 93.2128 51.1101 93.2128C50.7111 93.2128 50.3869 93.0964 50.1376 92.8637C49.9048 92.6143 49.7885 92.3068 49.7885 91.941V79.2987L50.5864 79.4733L45.1006 87.8267C44.9842 87.9763 44.8346 88.1093 44.6517 88.2256C44.4689 88.3254 44.2777 88.3669 44.0782 88.3503C43.8954 88.3669 43.7042 88.3254 43.5047 88.2256C43.3218 88.1093 43.1722 87.9763 43.0559 87.8267L37.7695 79.5979L38.368 78.6005V91.941C38.368 92.3068 38.2516 92.6143 38.0189 92.8637C37.8028 93.0964 37.5118 93.2128 37.1461 93.2128C36.797 93.2128 36.5061 93.0964 36.2734 92.8637C36.0573 92.6143 35.9492 92.3068 35.9492 91.941V77.0046C35.9492 76.6555 36.0739 76.3563 36.3233 76.1069C36.5892 75.8576 36.8968 75.7329 37.2459 75.7329Z" fill="#F3F3F3"/>
</g>
<g opacity="0.6">
<path d="M26.1828 78.9991L20.5723 92.4644C20.4726 92.7303 20.323 92.9381 20.1235 93.0877C19.924 93.2374 19.6996 93.3122 19.4502 93.3122C19.0845 93.3122 18.8102 93.2124 18.6274 93.0129C18.4445 92.7968 18.3447 92.5309 18.3281 92.215C18.3281 92.0986 18.3531 91.9656 18.4029 91.816L24.7366 76.5056C24.8529 76.223 25.0192 76.0069 25.2353 75.8573C25.468 75.7076 25.7174 75.6411 25.9834 75.6578C26.2327 75.6578 26.4654 75.7326 26.6815 75.8822C26.8977 76.0318 27.0556 76.2396 27.1553 76.5056L33.4142 91.5916C33.4807 91.7579 33.5139 91.9241 33.5139 92.0903C33.5139 92.456 33.3892 92.7553 33.1399 92.988C32.9071 93.2041 32.6412 93.3122 32.3419 93.3122C32.0926 93.3122 31.8598 93.2374 31.6437 93.0877C31.4442 92.9215 31.2946 92.7137 31.1949 92.4644L25.5345 79.0739L26.1828 78.9991ZM21.5698 88.9235L22.6919 86.5297H29.7486L30.1725 88.9235H21.5698Z" fill="#1F2231"/>
<path d="M26.1828 78.9991L20.5723 92.4644C20.4726 92.7303 20.323 92.9381 20.1235 93.0877C19.924 93.2374 19.6996 93.3122 19.4502 93.3122C19.0845 93.3122 18.8102 93.2124 18.6274 93.0129C18.4445 92.7968 18.3447 92.5309 18.3281 92.215C18.3281 92.0986 18.3531 91.9656 18.4029 91.816L24.7366 76.5056C24.8529 76.223 25.0192 76.0069 25.2353 75.8573C25.468 75.7076 25.7174 75.6411 25.9834 75.6578C26.2327 75.6578 26.4654 75.7326 26.6815 75.8822C26.8977 76.0318 27.0556 76.2396 27.1553 76.5056L33.4142 91.5916C33.4807 91.7579 33.5139 91.9241 33.5139 92.0903C33.5139 92.456 33.3892 92.7553 33.1399 92.988C32.9071 93.2041 32.6412 93.3122 32.3419 93.3122C32.0926 93.3122 31.8598 93.2374 31.6437 93.0877C31.4442 92.9215 31.2946 92.7137 31.1949 92.4644L25.5345 79.0739L26.1828 78.9991ZM21.5698 88.9235L22.6919 86.5297H29.7486L30.1725 88.9235H21.5698Z" fill="#F3F3F3"/>
</g>
<g opacity="0.6">
<path d="M10.6922 93.4619C9.42884 93.4619 8.24856 93.2375 7.15139 92.7887C6.05423 92.3232 5.09005 91.6832 4.25886 90.8686C3.4443 90.0374 2.80429 89.0816 2.33882 88.001C1.87336 86.9205 1.64062 85.7485 1.64062 84.4851C1.64062 83.2217 1.87336 82.0497 2.33882 80.9692C2.80429 79.8887 3.4443 78.9411 4.25886 78.1265C5.09005 77.2954 6.05423 76.6553 7.15139 76.2065C8.24856 75.741 9.42884 75.5083 10.6922 75.5083C11.5068 75.5083 12.2964 75.5997 13.0611 75.7826C13.8258 75.9655 14.5157 76.2314 15.1308 76.5805C15.3469 76.6969 15.5048 76.8548 15.6046 77.0543C15.7043 77.2372 15.7542 77.42 15.7542 77.6029C15.7542 77.952 15.6378 78.2595 15.4051 78.5255C15.189 78.7749 14.9147 78.8995 14.5822 78.8995C14.4658 78.8995 14.3412 78.8829 14.2082 78.8497C14.0918 78.8164 13.9837 78.7749 13.884 78.725C13.4185 78.4923 12.9198 78.3177 12.3879 78.2013C11.8559 78.0684 11.2907 78.0019 10.6922 78.0019C9.49534 78.0019 8.4148 78.2928 7.45062 78.8746C6.48644 79.4398 5.72175 80.2128 5.15654 81.1936C4.60796 82.1744 4.33367 83.2716 4.33367 84.4851C4.33367 85.682 4.60796 86.7792 5.15654 87.7766C5.72175 88.7574 6.48644 89.5387 7.45062 90.1206C8.4148 90.6858 9.49534 90.9684 10.6922 90.9684C11.2741 90.9684 11.8892 90.9019 12.5375 90.7689C13.1858 90.6193 13.7344 90.4281 14.1832 90.1954L13.9837 90.8686V86.1309L14.3827 86.48H11.1162C10.7504 86.48 10.4429 86.3636 10.1935 86.1309C9.9608 85.8981 9.84444 85.5989 9.84444 85.2332C9.84444 84.8675 9.9608 84.5682 10.1935 84.3355C10.4429 84.1028 10.7504 83.9864 11.1162 83.9864H15.43C15.7791 83.9864 16.07 84.1111 16.3028 84.3604C16.5521 84.5932 16.6768 84.8924 16.6768 85.2581V90.7938C16.6768 91.0598 16.6103 91.2842 16.4773 91.4671C16.3443 91.6499 16.1947 91.7996 16.0285 91.9159C15.2804 92.3814 14.4492 92.7554 13.5349 93.038C12.6372 93.3206 11.6897 93.4619 10.6922 93.4619Z" fill="#1F2231"/>
<path d="M10.6922 93.4619C9.42884 93.4619 8.24856 93.2375 7.15139 92.7887C6.05423 92.3232 5.09005 91.6832 4.25886 90.8686C3.4443 90.0374 2.80429 89.0816 2.33882 88.001C1.87336 86.9205 1.64062 85.7485 1.64062 84.4851C1.64062 83.2217 1.87336 82.0497 2.33882 80.9692C2.80429 79.8887 3.4443 78.9411 4.25886 78.1265C5.09005 77.2954 6.05423 76.6553 7.15139 76.2065C8.24856 75.741 9.42884 75.5083 10.6922 75.5083C11.5068 75.5083 12.2964 75.5997 13.0611 75.7826C13.8258 75.9655 14.5157 76.2314 15.1308 76.5805C15.3469 76.6969 15.5048 76.8548 15.6046 77.0543C15.7043 77.2372 15.7542 77.42 15.7542 77.6029C15.7542 77.952 15.6378 78.2595 15.4051 78.5255C15.189 78.7749 14.9147 78.8995 14.5822 78.8995C14.4658 78.8995 14.3412 78.8829 14.2082 78.8497C14.0918 78.8164 13.9837 78.7749 13.884 78.725C13.4185 78.4923 12.9198 78.3177 12.3879 78.2013C11.8559 78.0684 11.2907 78.0019 10.6922 78.0019C9.49534 78.0019 8.4148 78.2928 7.45062 78.8746C6.48644 79.4398 5.72175 80.2128 5.15654 81.1936C4.60796 82.1744 4.33367 83.2716 4.33367 84.4851C4.33367 85.682 4.60796 86.7792 5.15654 87.7766C5.72175 88.7574 6.48644 89.5387 7.45062 90.1206C8.4148 90.6858 9.49534 90.9684 10.6922 90.9684C11.2741 90.9684 11.8892 90.9019 12.5375 90.7689C13.1858 90.6193 13.7344 90.4281 14.1832 90.1954L13.9837 90.8686V86.1309L14.3827 86.48H11.1162C10.7504 86.48 10.4429 86.3636 10.1935 86.1309C9.9608 85.8981 9.84444 85.5989 9.84444 85.2332C9.84444 84.8675 9.9608 84.5682 10.1935 84.3355C10.4429 84.1028 10.7504 83.9864 11.1162 83.9864H15.43C15.7791 83.9864 16.07 84.1111 16.3028 84.3604C16.5521 84.5932 16.6768 84.8924 16.6768 85.2581V90.7938C16.6768 91.0598 16.6103 91.2842 16.4773 91.4671C16.3443 91.6499 16.1947 91.7996 16.0285 91.9159C15.2804 92.3814 14.4492 92.7554 13.5349 93.038C12.6372 93.3206 11.6897 93.4619 10.6922 93.4619Z" fill="#F3F3F3"/>
</g>
<defs>
<filter id="filter0_d_4544_1854" x="60.982" y="10.2413" width="40.0906" height="37.5838" filterUnits="userSpaceOnUse" color-interpolation-filters="sRGB">
<feFlood flood-opacity="0" result="BackgroundImageFix"/>
<feColorMatrix in="SourceAlpha" type="matrix" values="0 0 0 0 0 0 0 0 0 0 0 0 0 0 0 0 0 0 127 0" result="hardAlpha"/>
<feOffset/>
<feGaussianBlur stdDeviation="2.14765"/>
<feComposite in2="hardAlpha" operator="out"/>
<feColorMatrix type="matrix" values="0 0 0 0 0.619608 0 0 0 0 0.623529 0 0 0 0 0.647059 0 0 0 1 0"/>
<feBlend mode="normal" in2="BackgroundImageFix" result="effect1_dropShadow_4544_1854"/>
<feBlend mode="normal" in="SourceGraphic" in2="effect1_dropShadow_4544_1854" result="shape"/>
</filter>
</defs>
</svg>
