<svg width="28" height="28" viewBox="0 0 28 28" fill="none" xmlns="http://www.w3.org/2000/svg">
<g clip-path="url(#clip0_4531_1481)">
<path d="M12.9969 20.0019H14.9964C15.2616 20.0019 15.5159 20.1072 15.7034 20.2947C15.8909 20.4822 15.9962 20.7365 15.9962 21.0017C15.9962 21.2668 15.8909 21.5211 15.7034 21.7086C15.5159 21.8961 15.2616 22.0014 14.9964 22.0014H12.9969C12.7318 22.0014 12.4775 21.8961 12.29 21.7086C12.1025 21.5211 11.9971 21.2668 11.9971 21.0017C11.9971 20.7365 12.1025 20.4822 12.29 20.2947C12.4775 20.1072 12.7318 20.0019 12.9969 20.0019ZM6.99833 20.0019H8.99786C9.26301 20.0019 9.5173 20.1072 9.7048 20.2947C9.89229 20.4822 9.99762 20.7365 9.99762 21.0017C9.99762 21.2668 9.89229 21.5211 9.7048 21.7086C9.5173 21.8961 9.26301 22.0014 8.99786 22.0014H6.99833C6.73318 22.0014 6.47889 21.8961 6.2914 21.7086C6.1039 21.5211 5.99857 21.2668 5.99857 21.0017C5.99857 20.7365 6.1039 20.4822 6.2914 20.2947C6.47889 20.1072 6.73318 20.0019 6.99833 20.0019ZM18.9955 13.9367H20.995C21.2602 13.9367 21.5144 14.042 21.7019 14.2295C21.8894 14.417 21.9948 14.6713 21.9948 14.9364C21.9948 15.2016 21.8894 15.4559 21.7019 15.6434C21.5144 15.8309 21.2602 15.9362 20.995 15.9362H18.9955C18.7303 15.9362 18.476 15.8309 18.2885 15.6434C18.101 15.4559 17.9957 15.2016 17.9957 14.9364C17.9957 14.6713 18.101 14.417 18.2885 14.2295C18.476 14.042 18.7303 13.9367 18.9955 13.9367ZM12.9969 13.9367H14.9964C15.2616 13.9367 15.5159 14.042 15.7034 14.2295C15.8909 14.417 15.9962 14.6713 15.9962 14.9364C15.9962 15.2016 15.8909 15.4559 15.7034 15.6434C15.5159 15.8309 15.2616 15.9362 14.9964 15.9362H12.9969C12.7318 15.9362 12.4775 15.8309 12.29 15.6434C12.1025 15.4559 11.9971 15.2016 11.9971 14.9364C11.9971 14.6713 12.1025 14.417 12.29 14.2295C12.4775 14.042 12.7318 13.9367 12.9969 13.9367ZM6.99833 13.9367H8.99786C9.26301 13.9367 9.5173 14.042 9.7048 14.2295C9.89229 14.417 9.99762 14.6713 9.99762 14.9364C9.99762 15.2016 9.89229 15.4559 9.7048 15.6434C9.5173 15.8309 9.26301 15.9362 8.99786 15.9362H6.99833C6.73318 15.9362 6.47889 15.8309 6.2914 15.6434C6.1039 15.4559 5.99857 15.2016 5.99857 14.9364C5.99857 14.6713 6.1039 14.417 6.2914 14.2295C6.47889 14.042 6.73318 13.9367 6.99833 13.9367ZM25.7405 25.6806H2.2528V10.0043H25.7405V25.6806ZM2.2528 4.25899H5.99857V4.8855C5.99857 5.18424 6.11725 5.47075 6.32849 5.68199C6.53973 5.89323 6.82623 6.0119 7.12497 6.0119C7.42371 6.0119 7.71021 5.89323 7.92145 5.68199C8.13269 5.47075 8.25137 5.18424 8.25137 4.8855V4.25899H19.742V4.8855C19.742 5.18424 19.8606 5.47075 20.0719 5.68199C20.2831 5.89323 20.5696 6.0119 20.8684 6.0119C21.1671 6.0119 21.4536 5.89323 21.6648 5.68199C21.8761 5.47075 21.9948 5.18424 21.9948 4.8855V4.25899H25.7405V7.75149H2.2528V4.25899ZM25.7405 2.00619H21.9948V1.1264C21.9948 0.827659 21.8761 0.541155 21.6648 0.329914C21.4536 0.118674 21.1671 0 20.8684 0C20.5696 0 20.2831 0.118674 20.0719 0.329914C19.8606 0.541155 19.742 0.827659 19.742 1.1264V2.00619H8.25137V1.1264C8.25137 0.827659 8.13269 0.541155 7.92145 0.329914C7.71021 0.118674 7.42371 0 7.12497 0C6.82623 0 6.53973 0.118674 6.32849 0.329914C6.11725 0.541155 5.99857 0.827659 5.99857 1.1264V2.00619H2.2528C1.65532 2.00619 1.08231 2.24354 0.659829 2.66602C0.237348 3.0885 0 3.66151 0 4.25899L0 25.7472C0 26.3447 0.237348 26.9177 0.659829 27.3402C1.08231 27.7627 1.65532 28 2.2528 28H25.7405C26.338 28 26.911 27.7627 27.3335 27.3402C27.756 26.9177 27.9933 26.3447 27.9933 25.7472V4.25899C27.9933 3.66151 27.756 3.0885 27.3335 2.66602C26.911 2.24354 26.338 2.00619 25.7405 2.00619Z" fill="#bc65f7"/>
</g>
<defs>
<clipPath id="clip0_4531_1481">
<rect width="28" height="28" fill="white"/>
</clipPath>
</defs>
</svg>
