<svg width="28" height="28" viewBox="0 0 28 28" fill="none" xmlns="http://www.w3.org/2000/svg">
<g clip-path="url(#clip0_4531_1513)">
<path d="M22.575 22.435C21.8471 21.8666 21.0656 21.3704 20.2417 20.9533C20.9718 18.9149 21.3658 16.7715 21.4083 14.6067H26.075C25.914 17.5585 24.6675 20.3467 22.575 22.435ZM17.2083 25.5967C18.1171 24.7961 18.8654 23.8301 19.4133 22.75C19.9786 23.034 20.5208 23.3616 21.035 23.73C19.8845 24.5742 18.5926 25.2064 17.22 25.5967H17.2083ZM15.1667 24.675V21.5133C16.0304 21.5925 16.8831 21.7646 17.71 22.0267C17.1802 23.1676 16.2853 24.0995 15.1667 24.675ZM15.1667 14.6067H19.4483C19.4123 16.5146 19.0898 18.4062 18.4917 20.2183C17.4149 19.8588 16.2983 19.6316 15.1667 19.5417V14.6067ZM15.1667 8.47C16.2986 8.38171 17.4153 8.15445 18.4917 7.79333C19.015 9.3625 19.325 10.9949 19.4133 12.6467H15.1667V8.47ZM15.1667 3.33667C16.2834 3.9092 17.1781 4.83673 17.71 5.97333C16.8832 6.23565 16.0305 6.40776 15.1667 6.48667V3.33667ZM21.1167 4.28167C20.6028 4.65063 20.0606 4.97832 19.495 5.26167C18.9463 4.18207 18.1982 3.21615 17.29 2.415C18.65 2.80443 19.9299 3.43253 21.07 4.27L21.1167 4.28167ZM26.005 12.6467H21.3383C21.2215 10.7411 20.8285 8.8626 20.1717 7.07C20.9964 6.65429 21.778 6.15798 22.505 5.58833C24.4145 7.48298 25.6309 9.96506 25.9583 12.635L26.005 12.6467ZM13.1717 6.52167C12.2164 6.45589 11.2724 6.27571 10.36 5.985C10.9143 4.74666 11.9198 3.7662 13.1717 3.24333V6.52167ZM13.1717 12.6467H8.62167C8.71252 10.9952 9.02246 9.36313 9.54334 7.79333C10.7091 8.18394 11.9211 8.4193 13.1483 8.49333V12.6467H13.1717ZM13.1717 19.53C11.9443 19.6028 10.7321 19.8382 9.56667 20.23C8.96855 18.4179 8.64606 16.5262 8.61001 14.6183H13.1717V19.53ZM13.1717 24.78C11.9211 24.2551 10.9162 23.2753 10.36 22.0383C11.2724 21.7476 12.2164 21.5674 13.1717 21.5017V24.78ZM6.95334 23.7417H7.00001C7.51384 23.3727 8.0561 23.045 8.62167 22.7617C9.17034 23.8413 9.91853 24.8072 10.8267 25.6083C9.42421 25.2248 8.10364 24.5882 6.93001 23.73L6.95334 23.7417ZM1.98334 14.6067H6.65001C6.69376 16.7713 7.08775 18.9146 7.81667 20.9533C6.99193 21.369 6.21034 21.8654 5.48334 22.435C3.39087 20.3467 2.14431 17.5585 1.98334 14.6067ZM5.42501 5.565C6.16228 6.11846 6.95153 6.59905 7.78167 7C7.12484 8.7926 6.73185 10.6711 6.61501 12.5767H1.94834C2.28972 9.91617 3.51395 7.44718 5.42501 5.565ZM10.7917 2.40333C9.88291 3.2039 9.13462 4.16994 8.58667 5.25C8.03347 4.96444 7.50302 4.63681 7.00001 4.27C8.13991 3.42947 9.41967 2.79749 10.78 2.40333H10.7917ZM14 0C11.2311 0 8.52431 0.821086 6.22202 2.35943C3.91973 3.89776 2.12532 6.08427 1.06569 8.64243C0.00606593 11.2006 -0.271181 14.0155 0.269012 16.7313C0.809205 19.447 2.14258 21.9416 4.10051 23.8995C6.05845 25.8574 8.55301 27.1908 11.2687 27.731C13.9845 28.2712 16.7994 27.9939 19.3576 26.9343C21.9157 25.8747 24.1022 24.0803 25.6406 21.778C27.1789 19.4757 28 16.7689 28 14C28 10.287 26.525 6.72601 23.8995 4.1005C21.274 1.475 17.713 0 14 0Z" fill="#FFF"/>
</g>
<defs>
<clipPath id="clip0_4531_1513">
<rect width="28" height="28" fill="white"/>
</clipPath>
</defs>
</svg>
