<svg width="28" height="28" viewBox="0 0 28 28" fill="none" xmlns="http://www.w3.org/2000/svg">
<g clip-path="url(#clip0_4531_1529)">
<path d="M24.3196 23.4267C24.3162 23.5906 24.2486 23.7465 24.1315 23.8612C24.0143 23.9758 23.8569 24.04 23.693 24.04H15.9866V20.0001C15.9882 18.5946 15.5602 17.2223 14.7599 16.0669C15.0019 15.6018 15.317 15.1787 15.6932 14.8136C16.6503 13.889 17.929 13.3722 19.2598 13.3722C20.5905 13.3722 21.8693 13.889 22.8264 14.8136C23.2942 15.2617 23.6665 15.7998 23.9208 16.3955C24.1752 16.9913 24.3063 17.6324 24.3063 18.2802L24.3196 23.4267ZM13.1466 14.3869C12.6892 14.0408 12.1924 13.7499 11.6667 13.5203C12.9329 12.8739 13.9466 11.8226 14.5466 10.5337C15.0365 11.0709 15.6134 11.5217 16.2532 11.867C15.4513 12.2228 14.7197 12.7195 14.0933 13.3336C13.7456 13.6545 13.4286 14.0071 13.1466 14.3869ZM13.7066 25.1466C13.7063 25.2267 13.6895 25.3059 13.6574 25.3793C13.6253 25.4527 13.5785 25.5187 13.52 25.5733C13.4029 25.69 13.2452 25.7569 13.08 25.7599H4.22689C4.06298 25.76 3.90558 25.6958 3.78844 25.5811C3.67129 25.4665 3.60373 25.3105 3.60025 25.1466V20.0001C3.60024 19.3523 3.73136 18.7112 3.98571 18.1155C4.24005 17.5197 4.61236 16.9816 5.0802 16.5335C6.03727 15.6089 7.31602 15.0921 8.64677 15.0921C9.97751 15.0921 11.2563 15.6089 12.2133 16.5335C12.6836 16.9805 13.0584 17.5181 13.315 18.1139C13.5717 18.7097 13.7049 19.3514 13.7066 20.0001V25.1466ZM4.48022 8.00046C4.48234 7.46486 4.59201 6.93514 4.80272 6.44273C5.01342 5.95031 5.32088 5.50523 5.70685 5.13388C6.49903 4.37285 7.55493 3.94783 8.65343 3.94783C9.75194 3.94783 10.8078 4.37285 11.6 5.13388C11.981 5.50639 12.2837 5.95127 12.4904 6.44239C12.697 6.93351 12.8035 7.46097 12.8035 7.9938C12.8035 8.52663 12.697 9.05409 12.4904 9.5452C12.2837 10.0363 11.981 10.4812 11.6 10.8537C10.8078 11.6147 9.75194 12.0398 8.65343 12.0398C7.55493 12.0398 6.49903 11.6147 5.70685 10.8537C5.32249 10.4839 5.01596 10.041 4.8053 9.551C4.59465 9.061 4.48412 8.53381 4.48022 8.00046ZM16.3199 3.41393C17.1121 2.6529 18.168 2.22788 19.2665 2.22788C20.365 2.22788 21.4209 2.6529 22.213 3.41393C22.594 3.78644 22.8967 4.23132 23.1034 4.72244C23.31 5.21356 23.4165 5.74102 23.4165 6.27385C23.4165 6.80668 23.31 7.33414 23.1034 7.82525C22.8967 8.31637 22.594 8.76125 22.213 9.13376C21.4209 9.8948 20.365 10.3198 19.2665 10.3198C18.168 10.3198 17.1121 9.8948 16.3199 9.13376C15.9389 8.76125 15.6362 8.31637 15.4295 7.82525C15.2229 7.33414 15.1164 6.80668 15.1164 6.27385C15.1164 5.74102 15.2229 5.21356 15.4295 4.72244C15.6362 4.23132 15.9389 3.78644 16.3199 3.41393ZM24.4396 13.2803C23.8136 12.6657 23.0819 12.1689 22.2797 11.8137C23.2071 11.338 24.0037 10.6422 24.5996 9.78708C25.3274 8.75753 25.7186 7.52796 25.7196 6.26718C25.7074 5.43197 25.5309 4.60734 25.2 3.84038C24.8691 3.07342 24.3903 2.37916 23.7911 1.79724C23.1918 1.21533 22.4838 0.757161 21.7075 0.448906C20.9311 0.140651 20.1017 -0.0116518 19.2665 0.000694842C17.9342 -0.0066717 16.6316 0.39342 15.5332 1.14733C14.5733 1.78567 13.8075 2.67594 13.32 3.72059C12.7159 3.09148 11.9915 2.59024 11.1898 2.24667C10.3882 1.9031 9.5256 1.72422 8.65343 1.72064C7.81712 1.70831 6.98658 1.86105 6.20939 2.17014C5.43219 2.47923 4.72359 2.93858 4.12417 3.52191C3.52474 4.10523 3.04627 4.80106 2.71614 5.56956C2.38601 6.33805 2.21072 7.16412 2.20029 8.00046C2.20677 9.25214 2.59774 10.4716 3.32025 11.4937C3.91743 12.3477 4.71371 13.0433 5.64019 13.5203C4.83757 13.8748 4.10578 14.3717 3.48025 14.9869C2.80157 15.6343 2.26048 16.412 1.88935 17.2734C1.51822 18.1348 1.32468 19.0622 1.32031 20.0001V25.1333C1.32205 25.5126 1.39871 25.8879 1.54589 26.2375C1.69307 26.5871 1.90787 26.9042 2.17795 27.1706C2.44803 27.4369 2.76807 27.6473 3.11969 27.7896C3.47131 27.9319 3.84758 28.0034 4.22689 27.9999H13.08C13.643 28.0008 14.1942 27.8389 14.6673 27.5337C15.1404 27.2286 15.5152 26.7932 15.7466 26.2799H23.7463C24.1245 26.2835 24.4997 26.2124 24.8505 26.0709C25.2012 25.9295 25.5207 25.7203 25.7906 25.4553C26.0605 25.1904 26.2756 24.8748 26.4235 24.5268C26.5715 24.1787 26.6494 23.8049 26.6529 23.4267V18.2935C26.6436 17.3507 26.444 16.4195 26.066 15.5557C25.6879 14.6919 25.1393 13.9135 24.453 13.267L24.4396 13.2803Z" fill="#FFF"/>
</g>
<defs>
<clipPath id="clip0_4531_1529">
<rect width="28" height="28" fill="white"/>
</clipPath>
</defs>
</svg>
