<svg width="28" height="28" viewBox="0 0 28 28" fill="none" xmlns="http://www.w3.org/2000/svg">
<g clip-path="url(#clip0_4531_1497)">
<path d="M25.7467 19.5067H20.2533V8.25333H25.76L25.7467 19.5067ZM18 15.5067H6.74667V4.25333H18V15.5067ZM4.50667 25.7467H2.25333V2.25333H4.50667V25.7467ZM25.7467 6H20.2533V4.25333C20.2533 3.95742 20.195 3.66441 20.0818 3.39102C19.9686 3.11763 19.8026 2.86923 19.5933 2.65999C19.3841 2.45074 19.1357 2.28477 18.8623 2.17152C18.5889 2.05828 18.2959 2 18 2H6.73333C6.67132 1.45187 6.41041 0.945525 6.00002 0.576913C5.58963 0.208302 5.05829 0.00303181 4.50667 0L2.25333 0C1.65571 0 1.08257 0.237404 0.659986 0.659986C0.237404 1.08257 0 1.65571 0 2.25333L0 25.7467C0 26.3443 0.237404 26.9174 0.659986 27.34C1.08257 27.7626 1.65571 28 2.25333 28H4.50667C5.10429 28 5.67743 27.7626 6.10001 27.34C6.5226 26.9174 6.76 26.3443 6.76 25.7467V17.7467H18V19.4933C18 20.091 18.2374 20.6641 18.66 21.0867C19.0826 21.5093 19.6557 21.7467 20.2533 21.7467H25.76C26.353 21.7432 26.9207 21.506 27.3401 21.0867C27.7594 20.6674 27.9965 20.0997 28 19.5067V8.25333C28 7.65571 27.7626 7.08257 27.34 6.65999C26.9174 6.2374 26.3443 6 25.7467 6Z" fill="#FFF"/>
</g>
<defs>
<clipPath id="clip0_4531_1497">
<rect width="28" height="28" fill="white"/>
</clipPath>
</defs>
</svg>
