<svg width="936" height="600" viewBox="0 0 936 600" fill="none" xmlns="http://www.w3.org/2000/svg">
<g opacity="0.6">
<mask id="path-1-inside-1_7160_5693" fill="white">
<path fill-rule="evenodd" clip-rule="evenodd" d="M467.937 375.299C439.162 439.376 374.792 484 300 484C198.38 484 116 401.62 116 300C116 198.38 198.38 116 300 116C374.792 116 439.162 160.624 467.937 224.701C496.712 160.624 561.081 116 635.874 116C737.494 116 819.874 198.38 819.874 300C819.874 401.62 737.494 484 635.874 484C561.081 484 496.712 439.376 467.937 375.299Z"/>
</mask>
<path d="M467.937 375.299L471.586 373.661L467.937 365.535L464.288 373.661L467.937 375.299ZM467.937 224.701L464.288 226.339L467.937 234.465L471.586 226.339L467.937 224.701ZM464.288 373.661C436.135 436.353 373.16 480 300 480V488C376.424 488 442.189 442.399 471.586 376.938L464.288 373.661ZM300 480C200.589 480 120 399.411 120 300H112C112 403.83 196.17 488 300 488V480ZM120 300C120 200.589 200.589 120 300 120V112C196.17 112 112 196.17 112 300H120ZM300 120C373.16 120 436.135 163.647 464.288 226.339L471.586 223.062C442.189 157.601 376.424 112 300 112V120ZM471.586 226.339C499.739 163.647 562.713 120 635.874 120V112C559.449 112 493.684 157.601 464.288 223.062L471.586 226.339ZM635.874 120C735.285 120 815.874 200.589 815.874 300H823.874C823.874 196.17 739.703 112 635.874 112V120ZM815.874 300C815.874 399.411 735.285 480 635.874 480V488C739.703 488 823.874 403.83 823.874 300H815.874ZM635.874 480C562.713 480 499.739 436.353 471.586 373.661L464.288 376.938C493.684 442.399 559.449 488 635.874 488V480Z" fill="#1C1E2D" mask="url(#path-1-inside-1_7160_5693)"/>
</g>
<g opacity="0.6">
<mask id="path-3-inside-2_7160_5693" fill="white">
<path fill-rule="evenodd" clip-rule="evenodd" d="M467.937 460.791C425.614 504.982 366.021 532.5 300 532.5C171.594 532.5 67.5 428.406 67.5 300C67.5 171.594 171.594 67.5 300 67.5C366.021 67.5 425.614 95.0177 467.937 139.209C510.259 95.0177 569.853 67.5 635.874 67.5C764.28 67.5 868.374 171.594 868.374 300C868.374 428.406 764.28 532.5 635.874 532.5C569.853 532.5 510.259 504.982 467.937 460.791Z"/>
</mask>
<path d="M467.937 460.791L470.826 458.024L467.937 455.008L465.048 458.024L467.937 460.791ZM467.937 139.209L465.048 141.976L467.937 144.992L470.826 141.976L467.937 139.209ZM465.048 458.024C423.448 501.461 364.885 528.5 300 528.5V536.5C367.156 536.5 427.78 508.504 470.826 463.557L465.048 458.024ZM300 528.5C173.803 528.5 71.5 426.197 71.5 300H63.5C63.5 430.615 169.385 536.5 300 536.5V528.5ZM71.5 300C71.5 173.803 173.803 71.5 300 71.5V63.5C169.385 63.5 63.5 169.385 63.5 300H71.5ZM300 71.5C364.885 71.5 423.448 98.5395 465.048 141.976L470.826 136.443C427.78 91.4959 367.156 63.5 300 63.5V71.5ZM470.826 141.976C512.425 98.5395 570.988 71.5 635.874 71.5V63.5C568.718 63.5 508.094 91.4959 465.048 136.443L470.826 141.976ZM635.874 71.5C762.071 71.5 864.374 173.803 864.374 300H872.374C872.374 169.385 766.489 63.5 635.874 63.5V71.5ZM864.374 300C864.374 426.197 762.071 528.5 635.874 528.5V536.5C766.489 536.5 872.374 430.615 872.374 300H864.374ZM635.874 528.5C570.988 528.5 512.425 501.461 470.826 458.024L465.048 463.557C508.094 508.504 568.718 536.5 635.874 536.5V528.5Z" fill="#1C1E2D" mask="url(#path-3-inside-2_7160_5693)"/>
</g>
<g opacity="0.6">
<mask id="path-5-inside-3_7160_5693" fill="white">
<path fill-rule="evenodd" clip-rule="evenodd" d="M467.937 548.627C420.016 581.058 362.22 600 300 600C134.315 600 0 465.685 0 300C0 134.315 134.315 0 300 0C362.22 0 420.016 18.9417 467.937 51.3732C515.857 18.9417 573.653 0 635.874 0C801.559 0 935.874 134.315 935.874 300C935.874 465.685 801.559 600 635.874 600C573.653 600 515.857 581.058 467.937 548.627Z"/>
</mask>
<path d="M467.937 548.627L470.179 545.314L467.937 543.797L465.695 545.314L467.937 548.627ZM467.937 51.3732L465.695 54.6858L467.937 56.2031L470.179 54.6858L467.937 51.3732ZM465.695 545.314C418.416 577.312 361.396 596 300 596V604C363.044 604 421.617 584.805 470.179 551.939L465.695 545.314ZM300 596C136.524 596 4 463.476 4 300H-4C-4 467.895 132.105 604 300 604V596ZM4 300C4 136.524 136.524 4 300 4V-4C132.105 -4 -4 132.105 -4 300H4ZM300 4C361.396 4 418.416 22.6881 465.695 54.6858L470.179 48.0605C421.617 15.1952 363.044 -4 300 -4V4ZM470.179 54.6858C517.458 22.6881 574.477 4 635.874 4V-4C572.829 -4 514.256 15.1952 465.695 48.0605L470.179 54.6858ZM635.874 4C799.35 4 931.874 136.524 931.874 300H939.874C939.874 132.105 803.768 -4 635.874 -4V4ZM931.874 300C931.874 463.476 799.35 596 635.874 596V604C803.768 604 939.874 467.895 939.874 300H931.874ZM635.874 596C574.477 596 517.458 577.312 470.179 545.314L465.695 551.939C514.256 584.805 572.829 604 635.874 604V596Z" fill="#1C1E2D" mask="url(#path-5-inside-3_7160_5693)"/>
</g>
<g filter="url(#filter0_b_7160_5693)">
<path d="M416.516 300C416.516 364.35 364.35 416.516 300 416.516C235.65 416.516 183.484 364.35 183.484 300C183.484 235.65 235.65 183.484 300 183.484C364.35 183.484 416.516 235.65 416.516 300Z" stroke="#171824" stroke-width="5"/>
<g opacity="0.4">
<path d="M273.625 269.003C273.625 262.533 278.87 257.289 285.339 257.289H314.877C321.346 257.289 326.591 262.533 326.591 269.003V298.545C326.591 305.014 321.346 310.259 314.877 310.259H285.339C278.87 310.259 273.625 305.014 273.625 298.545V269.003Z" fill="white"/>
<path d="M314.892 282.247C314.76 283.857 314.477 285.451 314.047 287.008C312.58 293.462 306.802 298.28 299.899 298.28C291.886 298.28 285.391 291.79 285.391 283.784C285.391 275.777 291.886 269.287 299.899 269.287C305.098 269.287 309.658 272.019 312.22 276.126L316.89 277.444L313.358 278.361C313.358 278.361 313.358 278.361 313.358 278.362L308.104 279.768C306.618 276.74 303.502 274.656 299.899 274.656C294.854 274.656 290.764 278.743 290.764 283.784C290.764 288.825 294.854 292.911 299.899 292.911C303.794 292.911 307.12 290.475 308.434 287.044L300.434 285.481L314.942 281.636L314.892 282.247Z" fill="#1F2231"/>
<g opacity="0.6">
<path d="M363.328 325.483C363.527 325.483 363.735 325.533 363.951 325.633C364.167 325.732 364.334 325.874 364.45 326.057L370.784 335.707L369.711 335.657L376.17 326.057C376.436 325.674 376.776 325.483 377.192 325.483C377.525 325.483 377.815 325.608 378.065 325.857C378.331 326.09 378.464 326.389 378.464 326.755V341.691C378.464 342.057 378.347 342.364 378.115 342.614C377.882 342.847 377.574 342.963 377.192 342.963C376.793 342.963 376.469 342.847 376.22 342.614C375.987 342.364 375.87 342.057 375.87 341.691V329.049L376.668 329.223L371.183 337.577C371.066 337.726 370.917 337.859 370.734 337.976C370.551 338.076 370.36 338.117 370.16 338.1C369.977 338.117 369.786 338.076 369.587 337.976C369.404 337.859 369.254 337.726 369.138 337.577L363.852 329.348L364.45 328.351V341.691C364.45 342.057 364.334 342.364 364.101 342.614C363.885 342.847 363.594 342.963 363.228 342.963C362.879 342.963 362.588 342.847 362.355 342.614C362.139 342.364 362.031 342.057 362.031 341.691V326.755C362.031 326.406 362.156 326.106 362.405 325.857C362.671 325.608 362.979 325.483 363.328 325.483Z" fill="#1F2231"/>
<path d="M363.328 325.483C363.527 325.483 363.735 325.533 363.951 325.633C364.167 325.732 364.334 325.874 364.45 326.057L370.784 335.707L369.711 335.657L376.17 326.057C376.436 325.674 376.776 325.483 377.192 325.483C377.525 325.483 377.815 325.608 378.065 325.857C378.331 326.09 378.464 326.389 378.464 326.755V341.691C378.464 342.057 378.347 342.364 378.115 342.614C377.882 342.847 377.574 342.963 377.192 342.963C376.793 342.963 376.469 342.847 376.22 342.614C375.987 342.364 375.87 342.057 375.87 341.691V329.049L376.668 329.223L371.183 337.577C371.066 337.726 370.917 337.859 370.734 337.976C370.551 338.076 370.36 338.117 370.16 338.1C369.977 338.117 369.786 338.076 369.587 337.976C369.404 337.859 369.254 337.726 369.138 337.577L363.852 329.348L364.45 328.351V341.691C364.45 342.057 364.334 342.364 364.101 342.614C363.885 342.847 363.594 342.963 363.228 342.963C362.879 342.963 362.588 342.847 362.355 342.614C362.139 342.364 362.031 342.057 362.031 341.691V326.755C362.031 326.406 362.156 326.106 362.405 325.857C362.671 325.608 362.979 325.483 363.328 325.483Z" fill="#F3F3F3"/>
</g>
<g opacity="0.6">
<path d="M358.974 334.235C358.974 335.499 358.766 336.679 358.35 337.776C357.935 338.857 357.345 339.804 356.58 340.619C355.832 341.433 354.942 342.074 353.912 342.539C352.881 342.988 351.751 343.212 350.52 343.212C349.307 343.212 348.185 342.988 347.154 342.539C346.124 342.074 345.226 341.433 344.461 340.619C343.713 339.804 343.131 338.857 342.716 337.776C342.317 336.679 342.117 335.499 342.117 334.235C342.117 332.972 342.317 331.8 342.716 330.72C343.131 329.622 343.713 328.666 344.461 327.852C345.226 327.037 346.124 326.406 347.154 325.957C348.185 325.491 349.307 325.259 350.52 325.259C351.751 325.259 352.881 325.491 353.912 325.957C354.942 326.406 355.832 327.037 356.58 327.852C357.345 328.666 357.935 329.622 358.35 330.72C358.766 331.8 358.974 332.972 358.974 334.235ZM356.281 334.235C356.281 333.005 356.031 331.9 355.533 330.919C355.05 329.938 354.377 329.165 353.513 328.6C352.648 328.035 351.651 327.752 350.52 327.752C349.407 327.752 348.418 328.035 347.553 328.6C346.689 329.165 346.015 329.938 345.533 330.919C345.051 331.883 344.81 332.989 344.81 334.235C344.81 335.466 345.051 336.571 345.533 337.552C346.015 338.533 346.689 339.306 347.553 339.871C348.418 340.436 349.407 340.719 350.52 340.719C351.651 340.719 352.648 340.436 353.513 339.871C354.377 339.306 355.05 338.533 355.533 337.552C356.031 336.571 356.281 335.466 356.281 334.235Z" fill="#1F2231"/>
<path d="M358.974 334.235C358.974 335.499 358.766 336.679 358.35 337.776C357.935 338.857 357.345 339.804 356.58 340.619C355.832 341.433 354.942 342.074 353.912 342.539C352.881 342.988 351.751 343.212 350.52 343.212C349.307 343.212 348.185 342.988 347.154 342.539C346.124 342.074 345.226 341.433 344.461 340.619C343.713 339.804 343.131 338.857 342.716 337.776C342.317 336.679 342.117 335.499 342.117 334.235C342.117 332.972 342.317 331.8 342.716 330.72C343.131 329.622 343.713 328.666 344.461 327.852C345.226 327.037 346.124 326.406 347.154 325.957C348.185 325.491 349.307 325.259 350.52 325.259C351.751 325.259 352.881 325.491 353.912 325.957C354.942 326.406 355.832 327.037 356.58 327.852C357.345 328.666 357.935 329.622 358.35 330.72C358.766 331.8 358.974 332.972 358.974 334.235ZM356.281 334.235C356.281 333.005 356.031 331.9 355.533 330.919C355.05 329.938 354.377 329.165 353.513 328.6C352.648 328.035 351.651 327.752 350.52 327.752C349.407 327.752 348.418 328.035 347.553 328.6C346.689 329.165 346.015 329.938 345.533 330.919C345.051 331.883 344.81 332.989 344.81 334.235C344.81 335.466 345.051 336.571 345.533 337.552C346.015 338.533 346.689 339.306 347.553 339.871C348.418 340.436 349.407 340.719 350.52 340.719C351.651 340.719 352.648 340.436 353.513 339.871C354.377 339.306 355.05 338.533 355.533 337.552C356.031 336.571 356.281 335.466 356.281 334.235Z" fill="#F3F3F3"/>
</g>
<g opacity="0.6">
<path d="M340.005 334.235C340.005 335.499 339.797 336.679 339.382 337.776C338.966 338.857 338.376 339.804 337.611 340.619C336.863 341.433 335.974 342.074 334.943 342.539C333.912 342.988 332.782 343.212 331.552 343.212C330.338 343.212 329.216 342.988 328.185 342.539C327.155 342.074 326.257 341.433 325.492 340.619C324.744 339.804 324.162 338.857 323.747 337.776C323.348 336.679 323.148 335.499 323.148 334.235C323.148 332.972 323.348 331.8 323.747 330.72C324.162 329.622 324.744 328.666 325.492 327.852C326.257 327.037 327.155 326.406 328.185 325.957C329.216 325.491 330.338 325.259 331.552 325.259C332.782 325.259 333.912 325.491 334.943 325.957C335.974 326.406 336.863 327.037 337.611 327.852C338.376 328.666 338.966 329.622 339.382 330.72C339.797 331.8 340.005 332.972 340.005 334.235ZM337.312 334.235C337.312 333.005 337.063 331.9 336.564 330.919C336.082 329.938 335.408 329.165 334.544 328.6C333.68 328.035 332.682 327.752 331.552 327.752C330.438 327.752 329.449 328.035 328.584 328.6C327.72 329.165 327.047 329.938 326.565 330.919C326.083 331.883 325.841 332.989 325.841 334.235C325.841 335.466 326.083 336.571 326.565 337.552C327.047 338.533 327.72 339.306 328.584 339.871C329.449 340.436 330.438 340.719 331.552 340.719C332.682 340.719 333.68 340.436 334.544 339.871C335.408 339.306 336.082 338.533 336.564 337.552C337.063 336.571 337.312 335.466 337.312 334.235Z" fill="#1F2231"/>
<path d="M340.005 334.235C340.005 335.499 339.797 336.679 339.382 337.776C338.966 338.857 338.376 339.804 337.611 340.619C336.863 341.433 335.974 342.074 334.943 342.539C333.912 342.988 332.782 343.212 331.552 343.212C330.338 343.212 329.216 342.988 328.185 342.539C327.155 342.074 326.257 341.433 325.492 340.619C324.744 339.804 324.162 338.857 323.747 337.776C323.348 336.679 323.148 335.499 323.148 334.235C323.148 332.972 323.348 331.8 323.747 330.72C324.162 329.622 324.744 328.666 325.492 327.852C326.257 327.037 327.155 326.406 328.185 325.957C329.216 325.491 330.338 325.259 331.552 325.259C332.782 325.259 333.912 325.491 334.943 325.957C335.974 326.406 336.863 327.037 337.611 327.852C338.376 328.666 338.966 329.622 339.382 330.72C339.797 331.8 340.005 332.972 340.005 334.235ZM337.312 334.235C337.312 333.005 337.063 331.9 336.564 330.919C336.082 329.938 335.408 329.165 334.544 328.6C333.68 328.035 332.682 327.752 331.552 327.752C330.438 327.752 329.449 328.035 328.584 328.6C327.72 329.165 327.047 329.938 326.565 330.919C326.083 331.883 325.841 332.989 325.841 334.235C325.841 335.466 326.083 336.571 326.565 337.552C327.047 338.533 327.72 339.306 328.584 339.871C329.449 340.436 330.438 340.719 331.552 340.719C332.682 340.719 333.68 340.436 334.544 339.871C335.408 339.306 336.082 338.533 336.564 337.552C337.063 336.571 337.312 335.466 337.312 334.235Z" fill="#F3F3F3"/>
</g>
<g opacity="0.6">
<path d="M315.436 325.508C316.966 325.508 318.121 325.882 318.903 326.63C319.7 327.378 320.099 328.467 320.099 329.897C320.099 330.645 319.917 331.326 319.551 331.941C319.202 332.54 318.678 333.014 317.98 333.363C317.298 333.712 316.442 333.895 315.412 333.911L315.461 332.989C316.01 332.989 316.6 333.063 317.232 333.213C317.88 333.363 318.487 333.62 319.052 333.986C319.617 334.352 320.083 334.85 320.449 335.482C320.814 336.097 320.997 336.87 320.997 337.801C320.997 338.815 320.831 339.663 320.498 340.345C320.166 341.01 319.725 341.533 319.177 341.916C318.628 342.298 318.021 342.572 317.357 342.738C316.708 342.888 316.068 342.963 315.436 342.963H309.053C308.704 342.963 308.405 342.846 308.155 342.614C307.906 342.364 307.781 342.057 307.781 341.691V326.78C307.781 326.414 307.906 326.115 308.155 325.882C308.405 325.633 308.704 325.508 309.053 325.508H315.436ZM315.087 327.952H310.175L310.474 327.553V332.914L310.2 332.64H315.137C315.736 332.623 316.259 332.423 316.708 332.041C317.174 331.642 317.406 331.06 317.406 330.296C317.406 329.514 317.199 328.932 316.783 328.55C316.367 328.151 315.802 327.952 315.087 327.952ZM315.262 335.083H310.3L310.474 334.909V340.793L310.275 340.569H315.412C316.276 340.569 316.974 340.345 317.506 339.896C318.038 339.43 318.304 338.732 318.304 337.801C318.304 337.02 318.146 336.438 317.83 336.056C317.514 335.673 317.124 335.416 316.658 335.283C316.193 335.15 315.727 335.083 315.262 335.083Z" fill="#1F2231"/>
<path d="M315.436 325.508C316.966 325.508 318.121 325.882 318.903 326.63C319.7 327.378 320.099 328.467 320.099 329.897C320.099 330.645 319.917 331.326 319.551 331.941C319.202 332.54 318.678 333.014 317.98 333.363C317.298 333.712 316.442 333.895 315.412 333.911L315.461 332.989C316.01 332.989 316.6 333.063 317.232 333.213C317.88 333.363 318.487 333.62 319.052 333.986C319.617 334.352 320.083 334.85 320.449 335.482C320.814 336.097 320.997 336.87 320.997 337.801C320.997 338.815 320.831 339.663 320.498 340.345C320.166 341.01 319.725 341.533 319.177 341.916C318.628 342.298 318.021 342.572 317.357 342.738C316.708 342.888 316.068 342.963 315.436 342.963H309.053C308.704 342.963 308.405 342.846 308.155 342.614C307.906 342.364 307.781 342.057 307.781 341.691V326.78C307.781 326.414 307.906 326.115 308.155 325.882C308.405 325.633 308.704 325.508 309.053 325.508H315.436ZM315.087 327.952H310.175L310.474 327.553V332.914L310.2 332.64H315.137C315.736 332.623 316.259 332.423 316.708 332.041C317.174 331.642 317.406 331.06 317.406 330.296C317.406 329.514 317.199 328.932 316.783 328.55C316.367 328.151 315.802 327.952 315.087 327.952ZM315.262 335.083H310.3L310.474 334.909V340.793L310.275 340.569H315.412C316.276 340.569 316.974 340.345 317.506 339.896C318.038 339.43 318.304 338.732 318.304 337.801C318.304 337.02 318.146 336.438 317.83 336.056C317.514 335.673 317.124 335.416 316.658 335.283C316.193 335.15 315.727 335.083 315.262 335.083Z" fill="#F3F3F3"/>
</g>
<g opacity="0.6">
<path d="M292.301 342.963C291.902 342.963 291.553 342.846 291.254 342.614C290.954 342.364 290.805 342.057 290.805 341.691V326.78C290.805 326.414 290.929 326.115 291.179 325.882C291.428 325.633 291.727 325.508 292.076 325.508H299.108C300.006 325.508 300.829 325.732 301.577 326.181C302.325 326.613 302.923 327.22 303.372 328.001C303.838 328.766 304.07 329.647 304.07 330.645C304.07 331.31 303.937 331.95 303.671 332.565C303.405 333.163 303.048 333.695 302.599 334.161C302.15 334.626 301.643 334.975 301.078 335.208L300.804 334.734C301.319 334.917 301.768 335.183 302.15 335.532C302.533 335.865 302.832 336.263 303.048 336.729C303.281 337.178 303.405 337.693 303.422 338.275C303.472 338.79 303.514 339.223 303.547 339.572C303.597 339.904 303.663 340.178 303.746 340.394C303.829 340.611 303.979 340.777 304.195 340.893C304.494 341.059 304.677 341.309 304.744 341.641C304.827 341.974 304.76 342.273 304.544 342.539C304.395 342.738 304.203 342.871 303.971 342.938C303.755 342.988 303.53 342.996 303.297 342.963C303.065 342.913 302.865 342.846 302.699 342.763C302.433 342.597 302.159 342.364 301.876 342.065C301.61 341.749 301.394 341.317 301.228 340.769C301.062 340.22 300.978 339.497 300.978 338.599C300.978 338.184 300.912 337.826 300.779 337.527C300.646 337.228 300.463 336.987 300.23 336.804C299.998 336.604 299.723 336.463 299.407 336.38C299.092 336.28 298.743 336.23 298.36 336.23H293.074L293.423 335.732V341.691C293.423 342.057 293.323 342.364 293.124 342.614C292.924 342.846 292.65 342.963 292.301 342.963ZM293.099 334.061H299.058C299.441 334.044 299.806 333.895 300.156 333.612C300.521 333.313 300.812 332.914 301.028 332.415C301.261 331.916 301.377 331.351 301.377 330.719C301.377 329.922 301.136 329.257 300.654 328.725C300.189 328.176 299.632 327.902 298.984 327.902H293.149L293.423 327.253V334.584L293.099 334.061Z" fill="#1F2231"/>
<path d="M292.301 342.963C291.902 342.963 291.553 342.846 291.254 342.614C290.954 342.364 290.805 342.057 290.805 341.691V326.78C290.805 326.414 290.929 326.115 291.179 325.882C291.428 325.633 291.727 325.508 292.076 325.508H299.108C300.006 325.508 300.829 325.732 301.577 326.181C302.325 326.613 302.923 327.22 303.372 328.001C303.838 328.766 304.07 329.647 304.07 330.645C304.07 331.31 303.937 331.95 303.671 332.565C303.405 333.163 303.048 333.695 302.599 334.161C302.15 334.626 301.643 334.975 301.078 335.208L300.804 334.734C301.319 334.917 301.768 335.183 302.15 335.532C302.533 335.865 302.832 336.263 303.048 336.729C303.281 337.178 303.405 337.693 303.422 338.275C303.472 338.79 303.514 339.223 303.547 339.572C303.597 339.904 303.663 340.178 303.746 340.394C303.829 340.611 303.979 340.777 304.195 340.893C304.494 341.059 304.677 341.309 304.744 341.641C304.827 341.974 304.76 342.273 304.544 342.539C304.395 342.738 304.203 342.871 303.971 342.938C303.755 342.988 303.53 342.996 303.297 342.963C303.065 342.913 302.865 342.846 302.699 342.763C302.433 342.597 302.159 342.364 301.876 342.065C301.61 341.749 301.394 341.317 301.228 340.769C301.062 340.22 300.978 339.497 300.978 338.599C300.978 338.184 300.912 337.826 300.779 337.527C300.646 337.228 300.463 336.987 300.23 336.804C299.998 336.604 299.723 336.463 299.407 336.38C299.092 336.28 298.743 336.23 298.36 336.23H293.074L293.423 335.732V341.691C293.423 342.057 293.323 342.364 293.124 342.614C292.924 342.846 292.65 342.963 292.301 342.963ZM293.099 334.061H299.058C299.441 334.044 299.806 333.895 300.156 333.612C300.521 333.313 300.812 332.914 301.028 332.415C301.261 331.916 301.377 331.351 301.377 330.719C301.377 329.922 301.136 329.257 300.654 328.725C300.189 328.176 299.632 327.902 298.984 327.902H293.149L293.423 327.253V334.584L293.099 334.061Z" fill="#F3F3F3"/>
</g>
<g opacity="0.6">
<path d="M277.834 325.508H286.462C286.811 325.508 287.102 325.624 287.335 325.857C287.584 326.09 287.709 326.381 287.709 326.73C287.709 327.079 287.584 327.361 287.335 327.578C287.102 327.794 286.811 327.902 286.462 327.902H278.931L279.181 327.478V333.063L278.956 332.814H285.34C285.689 332.814 285.98 332.93 286.213 333.163C286.462 333.396 286.587 333.695 286.587 334.061C286.587 334.41 286.462 334.693 286.213 334.909C285.98 335.125 285.689 335.233 285.34 335.233H279.006L279.181 335.008V340.769L279.006 340.569H286.462C286.811 340.569 287.102 340.694 287.335 340.943C287.584 341.176 287.709 341.45 287.709 341.766C287.709 342.115 287.584 342.406 287.335 342.639C287.102 342.855 286.811 342.963 286.462 342.963H277.834C277.485 342.963 277.186 342.846 276.937 342.614C276.687 342.364 276.562 342.057 276.562 341.691V326.78C276.562 326.414 276.687 326.115 276.937 325.882C277.186 325.633 277.485 325.508 277.834 325.508Z" fill="#1F2231"/>
<path d="M277.834 325.508H286.462C286.811 325.508 287.102 325.624 287.335 325.857C287.584 326.09 287.709 326.381 287.709 326.73C287.709 327.079 287.584 327.361 287.335 327.578C287.102 327.794 286.811 327.902 286.462 327.902H278.931L279.181 327.478V333.063L278.956 332.814H285.34C285.689 332.814 285.98 332.93 286.213 333.163C286.462 333.396 286.587 333.695 286.587 334.061C286.587 334.41 286.462 334.693 286.213 334.909C285.98 335.125 285.689 335.233 285.34 335.233H279.006L279.181 335.008V340.769L279.006 340.569H286.462C286.811 340.569 287.102 340.694 287.335 340.943C287.584 341.176 287.709 341.45 287.709 341.766C287.709 342.115 287.584 342.406 287.335 342.639C287.102 342.855 286.811 342.963 286.462 342.963H277.834C277.485 342.963 277.186 342.846 276.937 342.614C276.687 342.364 276.562 342.057 276.562 341.691V326.78C276.562 326.414 276.687 326.115 276.937 325.882C277.186 325.633 277.485 325.508 277.834 325.508Z" fill="#F3F3F3"/>
</g>
<g opacity="0.6">
<path d="M257.359 325.483C257.559 325.483 257.766 325.533 257.983 325.633C258.199 325.732 258.365 325.874 258.481 326.057L264.815 335.707L263.743 335.657L270.201 326.057C270.467 325.674 270.808 325.483 271.223 325.483C271.556 325.483 271.847 325.608 272.096 325.857C272.362 326.09 272.495 326.389 272.495 326.755V341.691C272.495 342.057 272.379 342.364 272.146 342.614C271.913 342.847 271.606 342.963 271.223 342.963C270.824 342.963 270.5 342.847 270.251 342.614C270.018 342.364 269.902 342.057 269.902 341.691V329.049L270.7 329.223L265.214 337.577C265.097 337.726 264.948 337.859 264.765 337.976C264.582 338.076 264.391 338.117 264.192 338.1C264.009 338.117 263.817 338.076 263.618 337.976C263.435 337.859 263.286 337.726 263.169 337.577L257.883 329.348L258.481 328.351V341.691C258.481 342.057 258.365 342.364 258.132 342.614C257.916 342.847 257.625 342.963 257.259 342.963C256.91 342.963 256.619 342.847 256.387 342.614C256.171 342.364 256.062 342.057 256.062 341.691V326.755C256.062 326.406 256.187 326.106 256.437 325.857C256.703 325.608 257.01 325.483 257.359 325.483Z" fill="#1F2231"/>
<path d="M257.359 325.483C257.559 325.483 257.766 325.533 257.983 325.633C258.199 325.732 258.365 325.874 258.481 326.057L264.815 335.707L263.743 335.657L270.201 326.057C270.467 325.674 270.808 325.483 271.223 325.483C271.556 325.483 271.847 325.608 272.096 325.857C272.362 326.09 272.495 326.389 272.495 326.755V341.691C272.495 342.057 272.379 342.364 272.146 342.614C271.913 342.847 271.606 342.963 271.223 342.963C270.824 342.963 270.5 342.847 270.251 342.614C270.018 342.364 269.902 342.057 269.902 341.691V329.049L270.7 329.223L265.214 337.577C265.097 337.726 264.948 337.859 264.765 337.976C264.582 338.076 264.391 338.117 264.192 338.1C264.009 338.117 263.817 338.076 263.618 337.976C263.435 337.859 263.286 337.726 263.169 337.577L257.883 329.348L258.481 328.351V341.691C258.481 342.057 258.365 342.364 258.132 342.614C257.916 342.847 257.625 342.963 257.259 342.963C256.91 342.963 256.619 342.847 256.387 342.614C256.171 342.364 256.062 342.057 256.062 341.691V326.755C256.062 326.406 256.187 326.106 256.437 325.857C256.703 325.608 257.01 325.483 257.359 325.483Z" fill="#F3F3F3"/>
</g>
<g opacity="0.6">
<path d="M246.292 328.75L240.682 342.215C240.582 342.481 240.432 342.689 240.233 342.838C240.033 342.988 239.809 343.063 239.56 343.063C239.194 343.063 238.92 342.963 238.737 342.763C238.554 342.547 238.454 342.281 238.438 341.965C238.438 341.849 238.462 341.716 238.512 341.566L244.846 326.256C244.962 325.973 245.129 325.757 245.345 325.608C245.577 325.458 245.827 325.392 246.093 325.408C246.342 325.408 246.575 325.483 246.791 325.633C247.007 325.782 247.165 325.99 247.265 326.256L253.524 341.342C253.59 341.508 253.623 341.675 253.623 341.841C253.623 342.206 253.499 342.506 253.249 342.738C253.017 342.955 252.751 343.063 252.451 343.063C252.202 343.063 251.969 342.988 251.753 342.838C251.554 342.672 251.404 342.464 251.304 342.215L245.644 328.824L246.292 328.75ZM241.679 338.674L242.801 336.28H249.858L250.282 338.674H241.679Z" fill="#1F2231"/>
<path d="M246.292 328.75L240.682 342.215C240.582 342.481 240.432 342.689 240.233 342.838C240.033 342.988 239.809 343.063 239.56 343.063C239.194 343.063 238.92 342.963 238.737 342.763C238.554 342.547 238.454 342.281 238.438 341.965C238.438 341.849 238.462 341.716 238.512 341.566L244.846 326.256C244.962 325.973 245.129 325.757 245.345 325.608C245.577 325.458 245.827 325.392 246.093 325.408C246.342 325.408 246.575 325.483 246.791 325.633C247.007 325.782 247.165 325.99 247.265 326.256L253.524 341.342C253.59 341.508 253.623 341.675 253.623 341.841C253.623 342.206 253.499 342.506 253.249 342.738C253.017 342.955 252.751 343.063 252.451 343.063C252.202 343.063 251.969 342.988 251.753 342.838C251.554 342.672 251.404 342.464 251.304 342.215L245.644 328.824L246.292 328.75ZM241.679 338.674L242.801 336.28H249.858L250.282 338.674H241.679Z" fill="#F3F3F3"/>
</g>
<g opacity="0.6">
<path d="M230.802 343.212C229.538 343.212 228.358 342.988 227.261 342.539C226.164 342.074 225.199 341.433 224.368 340.619C223.554 339.788 222.914 338.832 222.448 337.751C221.983 336.671 221.75 335.499 221.75 334.235C221.75 332.972 221.983 331.8 222.448 330.72C222.914 329.639 223.554 328.691 224.368 327.877C225.199 327.046 226.164 326.406 227.261 325.957C228.358 325.491 229.538 325.259 230.802 325.259C231.616 325.259 232.406 325.35 233.171 325.533C233.935 325.716 234.625 325.982 235.24 326.331C235.456 326.447 235.614 326.605 235.714 326.805C235.814 326.987 235.864 327.17 235.864 327.353C235.864 327.702 235.747 328.01 235.514 328.276C235.298 328.525 235.024 328.65 234.692 328.65C234.575 328.65 234.451 328.633 234.318 328.6C234.201 328.567 234.093 328.525 233.993 328.475C233.528 328.243 233.029 328.068 232.497 327.952C231.965 327.819 231.4 327.752 230.802 327.752C229.605 327.752 228.524 328.043 227.56 328.625C226.596 329.19 225.831 329.963 225.266 330.944C224.717 331.925 224.443 333.022 224.443 334.235C224.443 335.432 224.717 336.529 225.266 337.527C225.831 338.508 226.596 339.289 227.56 339.871C228.524 340.436 229.605 340.719 230.802 340.719C231.383 340.719 231.999 340.652 232.647 340.519C233.295 340.37 233.844 340.178 234.293 339.946L234.093 340.619V335.881L234.492 336.23H231.226C230.86 336.23 230.552 336.114 230.303 335.881C230.07 335.648 229.954 335.349 229.954 334.983C229.954 334.618 230.07 334.319 230.303 334.086C230.552 333.853 230.86 333.737 231.226 333.737H235.539C235.888 333.737 236.179 333.861 236.412 334.111C236.661 334.343 236.786 334.643 236.786 335.008V340.544C236.786 340.81 236.72 341.035 236.587 341.217C236.454 341.4 236.304 341.55 236.138 341.666C235.39 342.132 234.559 342.506 233.644 342.788C232.747 343.071 231.799 343.212 230.802 343.212Z" fill="#1F2231"/>
<path d="M230.802 343.212C229.538 343.212 228.358 342.988 227.261 342.539C226.164 342.074 225.199 341.433 224.368 340.619C223.554 339.788 222.914 338.832 222.448 337.751C221.983 336.671 221.75 335.499 221.75 334.235C221.75 332.972 221.983 331.8 222.448 330.72C222.914 329.639 223.554 328.691 224.368 327.877C225.199 327.046 226.164 326.406 227.261 325.957C228.358 325.491 229.538 325.259 230.802 325.259C231.616 325.259 232.406 325.35 233.171 325.533C233.935 325.716 234.625 325.982 235.24 326.331C235.456 326.447 235.614 326.605 235.714 326.805C235.814 326.987 235.864 327.17 235.864 327.353C235.864 327.702 235.747 328.01 235.514 328.276C235.298 328.525 235.024 328.65 234.692 328.65C234.575 328.65 234.451 328.633 234.318 328.6C234.201 328.567 234.093 328.525 233.993 328.475C233.528 328.243 233.029 328.068 232.497 327.952C231.965 327.819 231.4 327.752 230.802 327.752C229.605 327.752 228.524 328.043 227.56 328.625C226.596 329.19 225.831 329.963 225.266 330.944C224.717 331.925 224.443 333.022 224.443 334.235C224.443 335.432 224.717 336.529 225.266 337.527C225.831 338.508 226.596 339.289 227.56 339.871C228.524 340.436 229.605 340.719 230.802 340.719C231.383 340.719 231.999 340.652 232.647 340.519C233.295 340.37 233.844 340.178 234.293 339.946L234.093 340.619V335.881L234.492 336.23H231.226C230.86 336.23 230.552 336.114 230.303 335.881C230.07 335.648 229.954 335.349 229.954 334.983C229.954 334.618 230.07 334.319 230.303 334.086C230.552 333.853 230.86 333.737 231.226 333.737H235.539C235.888 333.737 236.179 333.861 236.412 334.111C236.661 334.343 236.786 334.643 236.786 335.008V340.544C236.786 340.81 236.72 341.035 236.587 341.217C236.454 341.4 236.304 341.55 236.138 341.666C235.39 342.132 234.559 342.506 233.644 342.788C232.747 343.071 231.799 343.212 230.802 343.212Z" fill="#F3F3F3"/>
</g>
</g>
</g>
<g filter="url(#filter1_b_7160_5693)">
<path d="M752.891 300C752.891 364.626 700.501 417.016 635.875 417.016C571.249 417.016 518.859 364.626 518.859 300C518.859 235.374 571.249 182.984 635.875 182.984C700.501 182.984 752.891 235.374 752.891 300Z" stroke="#191A27" stroke-width="4"/>
<g opacity="0.3">
<path d="M572.233 297.09C572.233 298.509 571.693 299.754 570.642 300.767C569.591 301.78 568.299 302.301 566.828 302.301C565.356 302.301 564.064 301.78 563.013 300.767C561.962 299.754 561.422 298.509 561.422 297.09C561.422 295.672 561.962 294.427 563.013 293.414C564.064 292.4 565.356 291.879 566.828 291.879C568.299 291.879 569.591 292.4 570.642 293.414C571.693 294.427 572.233 295.672 572.233 297.09ZM577.639 297.09C577.639 294.224 576.588 291.792 574.456 289.737C572.324 287.682 569.801 286.668 566.828 286.668C563.854 286.668 561.301 287.682 559.169 289.737C557.067 291.764 556.016 294.224 556.016 297.09V310.697C556.016 312.115 557.247 313.302 558.719 313.302C560.25 313.302 561.422 312.115 561.422 310.697V306.123C563.103 307.049 564.905 307.512 566.828 307.512C566.978 307.512 567.278 307.483 567.759 307.454L573.044 312.549C573.555 313.041 574.216 313.302 574.966 313.302C576.438 313.302 577.639 312.144 577.639 310.726C577.639 310.002 577.369 309.365 576.859 308.873L573.315 305.428C576.198 303.343 577.639 300.564 577.639 297.09Z" fill="white"/>
<path d="M600.297 303.17C600.297 301.693 599.126 300.564 597.594 300.564C596.123 300.564 594.891 301.693 594.891 303.17V310.697C594.891 312.115 596.123 313.302 597.594 313.302C599.126 313.302 600.297 312.115 600.297 310.697V303.17ZM600.297 289.274C600.297 287.797 599.126 286.668 597.594 286.668C596.123 286.668 594.891 287.797 594.891 289.274C594.891 290.692 596.123 291.879 597.594 291.879C599.126 291.879 600.297 290.692 600.297 289.274Z" fill="white"/>
<path d="M639.147 302.88C639.147 300.014 638.096 297.582 635.964 295.527C633.832 293.472 631.309 292.458 628.336 292.458C625.362 292.458 622.809 293.472 620.677 295.527C618.575 297.553 617.524 300.014 617.524 302.88V310.697C617.524 312.115 618.755 313.302 620.227 313.302C621.758 313.302 622.93 312.115 622.93 310.697V302.88C622.93 301.462 623.47 300.217 624.521 299.204C625.573 298.19 626.864 297.669 628.336 297.669C629.807 297.669 631.099 298.19 632.15 299.204C633.201 300.217 633.742 301.462 633.742 302.88V310.697C633.742 312.115 634.973 313.302 636.444 313.302C637.976 313.302 639.147 312.115 639.147 310.697V302.88Z" fill="white"/>
<path d="M661.805 289.274C661.805 287.797 660.634 286.668 659.102 286.668C657.631 286.668 656.399 287.797 656.399 289.274V310.697C656.399 312.115 657.631 313.302 659.102 313.302C660.634 313.302 661.805 312.115 661.805 310.697V289.274ZM674.389 313.331C675.861 313.331 677.122 312.115 677.122 310.697C677.122 309.973 676.852 309.365 676.311 308.844L670.125 302.88L676.311 296.917C676.852 296.395 677.122 295.788 677.122 295.064C677.122 293.645 675.861 292.429 674.389 292.429C673.638 292.429 673.008 292.69 672.467 293.211L664.358 301.027C663.818 301.548 663.547 302.156 663.547 302.88C663.547 303.604 663.818 304.212 664.358 304.733L672.467 312.549C673.008 313.07 673.638 313.331 674.389 313.331Z" fill="white"/>
<path d="M715.991 295.064C715.991 293.587 714.82 292.458 713.288 292.458C711.817 292.458 710.585 293.587 710.585 295.064V302.88C710.585 304.299 710.045 305.544 708.993 306.557C707.942 307.57 706.651 308.091 705.179 308.091C703.708 308.091 702.416 307.57 701.365 306.557C700.314 305.544 699.773 304.299 699.773 302.88V295.064C699.773 293.587 698.602 292.458 697.07 292.458C695.599 292.458 694.367 293.587 694.367 295.064V302.88C694.367 305.746 695.388 308.207 697.521 310.262C699.653 312.318 702.206 313.302 705.179 313.302C708.152 313.302 710.705 312.289 712.808 310.262C714.94 308.207 715.991 305.746 715.991 302.88V295.064Z" fill="white"/>
<path d="M569.837 297.09C569.837 298.662 568.515 299.936 566.885 299.936C565.255 299.936 563.933 298.662 563.933 297.09C563.933 295.519 565.255 294.245 566.885 294.245C568.515 294.245 569.837 295.519 569.837 297.09Z" fill="white"/>
<path d="M708.081 302.07C708.081 303.641 706.759 304.915 705.129 304.915C703.498 304.915 702.177 303.641 702.177 302.07C702.177 300.498 703.498 299.224 705.129 299.224C706.759 299.224 708.081 300.498 708.081 302.07Z" fill="white"/>
</g>
</g>
<defs>
<filter id="filter0_b_7160_5693" x="57.3318" y="57.3318" width="485.336" height="485.336" filterUnits="userSpaceOnUse" color-interpolation-filters="sRGB">
<feFlood flood-opacity="0" result="BackgroundImageFix"/>
<feGaussianBlur in="BackgroundImageFix" stdDeviation="61.8263"/>
<feComposite in2="SourceAlpha" operator="in" result="effect1_backgroundBlur_7160_5693"/>
<feBlend mode="normal" in="SourceGraphic" in2="effect1_backgroundBlur_7160_5693" result="shape"/>
</filter>
<filter id="filter1_b_7160_5693" x="393.207" y="57.3318" width="485.336" height="485.336" filterUnits="userSpaceOnUse" color-interpolation-filters="sRGB">
<feFlood flood-opacity="0" result="BackgroundImageFix"/>
<feGaussianBlur in="BackgroundImageFix" stdDeviation="61.8263"/>
<feComposite in2="SourceAlpha" operator="in" result="effect1_backgroundBlur_7160_5693"/>
<feBlend mode="normal" in="SourceGraphic" in2="effect1_backgroundBlur_7160_5693" result="shape"/>
</filter>
</defs>
</svg>
