<svg width="48" height="48" viewBox="0 0 48 48" fill="none" xmlns="http://www.w3.org/2000/svg">
<g clip-path="url(#clip0_4421_1407)">
<path fill-rule="evenodd" clip-rule="evenodd" d="M24 -0.000976562C10.7367 -0.000976562 0 10.7357 0 23.999C0 37.2623 10.7367 47.999 24 47.999C37.2633 47.999 48 37.2646 48 23.999C48 10.7334 37.2656 -0.000976562 24 -0.000976562ZM18.7623 30.8137C22.5007 30.8137 25.5312 27.7624 25.5312 23.9985C25.5312 20.2346 22.5005 17.1835 18.7623 17.1835C15.0242 17.1835 11.9937 20.2337 11.9937 23.9985C11.9937 27.7633 15.024 30.8137 18.7623 30.8137ZM29.5722 30.4138C31.4413 30.4138 32.9566 27.5417 32.9566 23.9985C32.9566 20.4562 31.4413 17.5832 29.5722 17.5832C27.7032 17.5832 26.1878 20.4562 26.1878 23.9985C26.1878 27.5408 27.7032 30.4138 29.5722 30.4138ZM34.8034 29.7464C35.4608 29.7464 35.9937 27.1731 35.9937 23.9985C35.9937 20.8242 35.4612 18.2506 34.8036 18.2506C34.1461 18.2506 33.6131 20.8248 33.6131 23.9985C33.6131 27.1721 34.1461 29.7464 34.8034 29.7464Z" fill="white"/>
</g>
<defs>
<clipPath id="clip0_4421_1407">
<rect width="48" height="48" fill="white"/>
</clipPath>
</defs>
</svg>
