<svg width="48" height="48" viewBox="0 0 48 48" fill="none" xmlns="http://www.w3.org/2000/svg">
<g clip-path="url(#clip0_4566_1962)">
<path fill-rule="evenodd" clip-rule="evenodd" d="M24 0C10.7367 0 0 10.7367 0 24C0 37.2633 10.7367 48 24 48C37.2633 48 48 37.2656 48 24C48 10.7344 37.2656 0 24 0ZM34.4193 16.9801C35.5337 16.8544 36.6235 16.5801 37.6513 16.1571L37.7132 16.18C36.9578 17.2202 36.0043 18.1346 34.9022 18.8662C34.9146 19.0833 34.9146 19.312 34.9146 19.5291C34.9146 26.376 29.2555 34.2859 18.9156 34.2859C15.857 34.2859 12.8603 33.4743 10.2846 31.954C10.7304 31.9998 11.1762 32.0226 11.622 32.0226C14.1481 32.0226 16.6 31.2453 18.5937 29.8051C16.179 29.7708 14.0738 28.3192 13.3308 26.2045C14.1729 26.3531 15.0273 26.3188 15.857 26.1131C13.2318 25.6216 11.3495 23.4955 11.3495 21.0265V20.9579C12.1297 21.358 13.0089 21.5866 13.9005 21.6095C12.3897 20.6722 11.3991 19.0948 11.3991 17.2888C11.3867 16.3743 11.6591 15.4713 12.1544 14.6712C14.9283 17.8031 19.0766 19.8835 23.7326 20.0892C23.1506 17.8031 24.3023 15.437 26.556 14.3283C28.8097 13.2195 31.5835 13.6424 33.3172 15.357C34.605 15.117 35.8062 14.694 36.8959 14.1111C36.4749 15.3113 35.5957 16.3286 34.4193 16.9801Z" fill="white"/>
</g>
<defs>
<clipPath id="clip0_4566_1962">
<rect width="48" height="48" fill="white"/>
</clipPath>
</defs>
</svg>
