<svg width="19" height="18" viewBox="0 0 19 18" fill="none" xmlns="http://www.w3.org/2000/svg">
<circle cx="9.5" cy="9" r="9" fill="#14151F"/>
<path d="M14.4033 10.8333C14.3647 10.8333 14.3333 10.8647 14.3333 10.9033V13.0967C14.3333 13.1353 14.302 13.1667 14.2633 13.1667H5.07C5.03134 13.1667 5 13.1353 5 13.0967V5.07C5 5.03134 5.03134 5 5.07 5H14.2633C14.302 5 14.3333 5.03134 14.3333 5.07V7.26333C14.3333 7.30199 14.3647 7.33333 14.4033 7.33333H14.8467C14.8853 7.33333 14.9167 7.36467 14.9167 7.40333V10.7633C14.9167 10.802 14.8853 10.8333 14.8467 10.8333H14.4033ZM13.75 8.57C13.75 8.53134 13.7187 8.5 13.68 8.5H12.5833C12.2333 8.5 12 8.73333 12 9.08333C12 9.43333 12.2333 9.66667 12.5833 9.66667H13.68C13.7187 9.66667 13.75 9.63533 13.75 9.59667V8.57ZM13.0967 7.33333C13.1353 7.33333 13.1667 7.30199 13.1667 7.26333V6.23667C13.1667 6.19801 13.1353 6.16667 13.0967 6.16667H6.23667C6.19801 6.16667 6.16667 6.19801 6.16667 6.23667V11.93C6.16667 11.9687 6.19801 12 6.23667 12H13.0967C13.1353 12 13.1667 11.9687 13.1667 11.93V10.9033C13.1667 10.8647 13.1353 10.8333 13.0967 10.8333H12.5833C11.5917 10.8333 10.8333 10.075 10.8333 9.08333C10.8333 8.09167 11.5917 7.33333 12.5833 7.33333H13.0967Z" fill="#00FFB4"/>
</svg>
